<?xml version="1.0" encoding="utf-8"?>
<svg xmlns="http://www.w3.org/2000/svg">
<symbol id="chef" viewBox="0 0 943.47 819.5"><defs><linearGradient id="87b97b19-da95-49ff-b734-457e8a90150d" x1="262.65" y1="854.48" x2="262.65" y2="218.92" gradientUnits="userSpaceOnUse"><stop offset="0" stop-color="gray" stop-opacity="0.25"/><stop offset="0.54" stop-color="gray" stop-opacity="0.12"/><stop offset="1" stop-color="gray" stop-opacity="0.1"/></linearGradient></defs><title>chef</title><ellipse cx="377.4" cy="747.78" rx="324" ry="11.55" fill="#e96683" opacity="0.1"/><path d="M418.86,72.68c31.93-28.45,82.05-34.25,127.67-32,143.3,7.12,272.66,76.3,384.55,154.56,40.5,28.33,80.38,58.86,106.68,97.87C1091.28,372.53,1075.4,482.54,1001,548c-25.32,22.25-56,39.32-87.54,54.44-56,26.9-116.49,48.49-180.08,54.64-45.36,4.38-91.26.81-136.35-5.3C471,634.67,347.4,596.89,243.76,532.26c-45.45-28.35-88.29-63.59-107-109.45S130,318.84,176.4,291.7c19.2-11.23,42.15-16.3,64.62-21.06,33.07-7,66.68-13.91,96.52-28.16,30.83-14.71,67.33-43.17,61.23-75.74C392.22,131.79,387,101.1,418.86,72.68Z" transform="translate(-128.27 -40.25)" fill="#e96683" opacity="0.1"/><ellipse cx="126.74" cy="802.04" rx="86.65" ry="17.46" fill="#e96683" opacity="0.1"/><ellipse cx="856.81" cy="756.44" rx="86.65" ry="7.67" fill="#e96683" opacity="0.1"/><rect x="256.74" y="160.2" width="256.77" height="56.73" fill="#464a5f"/><rect x="256.74" y="160.2" width="256.77" height="1.47" opacity="0.1"/><rect x="244.22" y="34.57" width="282.93" height="125.62" fill="#65617d"/><path d="M139.1,34.57H248.64a0,0,0,0,1,0,0V300.19a0,0,0,0,1,0,0H119.7a0,0,0,0,1,0,0V54a19.4,19.4,0,0,1,19.4-19.4Z" fill="#65617d"/><rect x="139.04" y="51.33" width="93.2" height="235.04" opacity="0.1"/><rect x="137.57" y="49.86" width="93.2" height="235.04" fill="#d1d9ec"/><circle cx="230.77" cy="272.93" r="9.49" opacity="0.1"/><circle cx="230.77" cy="271.45" r="9.49" fill="#464a5f"/><path d="M520.15,34.57H628.7A20.4,20.4,0,0,1,649.09,55V300.19a0,0,0,0,1,0,0H520.15a0,0,0,0,1,0,0V34.57A0,0,0,0,1,520.15,34.57Z" fill="#65617d"/><rect x="539.49" y="51.33" width="93.2" height="235.04" opacity="0.1"/><rect x="538.02" y="49.86" width="93.2" height="235.04" fill="#d1d9ec"/><circle cx="631.23" cy="272.93" r="9.49" opacity="0.1"/><circle cx="631.23" cy="271.45" r="9.49" fill="#464a5f"/><rect x="267.06" y="51.33" width="100.66" height="100.66" opacity="0.1"/><rect x="265.59" y="49.86" width="100.66" height="100.66" fill="#d1d9ec"/><circle cx="366.25" cy="152" r="6.08" opacity="0.1"/><circle cx="366.25" cy="150.53" r="6.08" fill="#464a5f"/><rect x="527.49" y="91.58" width="100.66" height="100.66" transform="translate(1027.38 243.58) rotate(-180)" opacity="0.1"/><rect x="528.96" y="90.11" width="100.66" height="100.66" transform="translate(1030.32 240.64) rotate(-180)" fill="#d1d9ec"/><circle cx="400.7" cy="152" r="6.08" opacity="0.1"/><circle cx="400.7" cy="150.53" r="6.08" fill="#464a5f"/><rect x="381.63" y="34.57" width="4.05" height="125.62" opacity="0.1"/><rect x="265.59" y="208.09" width="16.95" height="5.16" opacity="0.1"/><rect x="265.59" y="206.61" width="16.95" height="5.16" fill="#53526b"/><rect x="390.11" y="201.82" width="88.78" height="11.42" opacity="0.1"/><rect x="390.11" y="200.35" width="88.78" height="11.42" fill="#53526b"/><circle cx="440.82" cy="207.53" r="2.21" opacity="0.1"/><circle cx="440.82" cy="206.06" r="2.21" fill="#b65256"/><circle cx="453.47" cy="207.53" r="2.21" opacity="0.1"/><circle cx="453.47" cy="206.06" r="2.21" fill="#ffd77c"/><rect x="90.42" y="470.32" width="587.96" height="250.51" fill="#65617d"/><rect x="90.42" y="470.32" width="587.96" height="5.16" opacity="0.1"/><rect x="82.68" y="460.74" width="603.44" height="13.26" fill="#65617d"/><rect x="82.68" y="460.74" width="603.44" height="2.21" opacity="0.1"/><rect x="71.5" y="457.06" width="625.79" height="4.42" fill="#65617d"/><rect x="109.2" y="479.16" width="128.94" height="39.79" opacity="0.1"/><rect x="110.68" y="477.69" width="128.94" height="39.79" fill="#d1d9ec"/><rect x="109.2" y="537" width="128.94" height="80.68" opacity="0.1"/><rect x="110.68" y="535.52" width="128.94" height="80.68" fill="#d1d9ec"/><rect x="109.2" y="629.83" width="128.94" height="80.68" opacity="0.1"/><rect x="110.68" y="628.36" width="128.94" height="80.68" fill="#d1d9ec"/><rect x="155.25" y="495.37" width="36.84" height="7.37" opacity="0.1"/><rect x="155.25" y="493.9" width="36.84" height="7.37" fill="#464a5f"/><rect x="543.18" y="479.16" width="128.94" height="39.79" opacity="0.1"/><rect x="544.65" y="477.69" width="128.94" height="39.79" fill="#d1d9ec"/><rect x="544.65" y="530.74" width="128.94" height="173.15" fill="#d1d9ec"/><rect x="589.23" y="493.9" width="36.84" height="7.37" fill="#464a5f"/><rect x="155.25" y="575.31" width="36.84" height="7.37" opacity="0.1"/><rect x="155.25" y="573.84" width="36.84" height="7.37" fill="#464a5f"/><rect x="155.25" y="660.78" width="36.84" height="7.37" opacity="0.1"/><rect x="155.25" y="659.31" width="36.84" height="7.37" fill="#464a5f"/><rect x="563.62" y="548.97" width="93.94" height="139.62" opacity="0.1"/><rect x="562.15" y="547.5" width="93.94" height="139.62" fill="#e96683" opacity="0.3"/><rect x="82.68" y="718.36" width="603.44" height="25.05" opacity="0.1"/><rect x="82.68" y="719.36" width="603.44" height="25.05" fill="#65617d"/><rect x="250.67" y="490.64" width="282.93" height="182.36" fill="#464a5f"/><path d="M382.25,545.63s158.78,16.21,275.19.73v14.37s-119,14.74-275.19-2.58Z" transform="translate(-128.27 -40.25)" opacity="0.1"/><path d="M382.25,544.15s158.78,16.21,275.19.74v14.37s-119,14.73-275.19-2.58Z" transform="translate(-128.27 -40.25)" fill="#d1d9ec"/><rect x="282.53" y="538.9" width="219.2" height="104.26" fill="#e96683" opacity="0.3"/><rect x="250.67" y="490.64" width="282.93" height="5.53" opacity="0.1"/><rect x="246.25" y="452.7" width="291.77" height="42" fill="#464a5f"/><circle cx="270.19" cy="471.85" r="10.68" opacity="0.1"/><circle cx="270.19" cy="470.38" r="10.68" fill="#d1d9ec"/><circle cx="296.35" cy="471.85" r="10.68" opacity="0.1"/><circle cx="296.35" cy="470.38" r="10.68" fill="#d1d9ec"/><circle cx="488.65" cy="471.85" r="10.68" opacity="0.1"/><circle cx="488.65" cy="470.38" r="10.68" fill="#d1d9ec"/><circle cx="514.81" cy="471.85" r="10.68" opacity="0.1"/><circle cx="514.81" cy="470.38" r="10.68" fill="#d1d9ec"/><rect x="350.14" y="460.06" width="81.42" height="25.42" opacity="0.1"/><rect x="351.61" y="458.59" width="78.84" height="25.42" fill="#53526b"/><rect x="270.19" y="457.39" width="2.95" height="25.97" opacity="0.1"/><rect x="268.72" y="457.39" width="2.95" height="25.97" fill="#53526b"/><rect x="514.81" y="457.39" width="2.95" height="25.97" opacity="0.1"/><rect x="513.34" y="457.39" width="2.95" height="25.97" fill="#53526b"/><rect x="615.45" y="499.12" width="2.95" height="25.97" transform="translate(414.54 -326.49) rotate(45)" opacity="0.1"/><rect x="615.45" y="497.64" width="2.95" height="25.97" transform="translate(413.49 -326.92) rotate(45)" fill="#53526b"/><rect x="423.14" y="499.12" width="2.95" height="25.97" transform="translate(808.45 47.24) rotate(90)" opacity="0.1"/><rect x="423.14" y="497.64" width="2.95" height="25.97" transform="translate(806.98 45.76) rotate(90)" fill="#53526b"/><rect x="250.67" y="668.69" width="282.93" height="4.3" opacity="0.1"/><rect x="246.25" y="670.17" width="291.77" height="75.03" fill="#464a5f"/><path d="M361.6,428.53c-1.41-2.74-8.87-19.71-8.87-19.71l-12.49-32.38s-8.87-13.65-8.87-16.19-16.13-12.68-16.13-12.68-13.1-3.9-14.11-4.29-16.53-5.53-16.53-5.53-6.11-8-7-5.93h0l-.09-.15a20.7,20.7,0,0,1-2.33-7.52c0-.23-.07-.48-.1-.72a29.9,29.9,0,0,0,13.13-24.63A30.29,30.29,0,0,0,288,295a2.21,2.21,0,0,1,.34-.18c.25-.11.19-.2,0-.29l.19-.09c.34-.15.12-.26-.21-.39h0c.46-.2-.12-.33-.58-.54,0-.13-.05-.27-.08-.4a2.4,2.4,0,0,0,.19-.8l.12.06a3.3,3.3,0,0,0,0-1.53,1.76,1.76,0,0,1-.1.3,3.92,3.92,0,0,0-.32-1.4,4,4,0,0,0-.85-.91l-.08-.06.86-8.75c12.6-.6,14.81-22,11.94-23.23s0-3.78,0-8.94-9.51-10.92-9.51-10.92-4,2-10.17-7.94-29-11.52-30.52-8.94-11.72,6-25,9.73-10.83,19.46-8.62,22.84a19.26,19.26,0,0,1,3.1,9.33c0,2,4.2,10.32,4.2,10.32-1.33,2.89,2,18.72,3,23.22,0,.14,0,.28,0,.42l0,0a2.53,2.53,0,0,0-.13.22,2.58,2.58,0,0,0-.2,1.5,3.08,3.08,0,0,0,.22,1.63,29.79,29.79,0,0,0,10.55,22.2c0,.27,0,.54.05.82.18,3.68.29,8,.1,12.18,0,.21,0,.42,0,.63a4.81,4.81,0,0,0-3.38,2.66c-1.25,2.41-8.5,6.11-8.5,6.11s-12.7.59-13.91,2.93-19.55,10.14-19.55,10.14-9.68,5.66-8.27,12.1c.74,3.36-1.33,8.59-3.47,12.81a61.35,61.35,0,0,0-13.92-3.47l10.28,9.83-.34.53-5.85,20.68s-2,7.22-4,9,1.81,17.75,1.81,17.75-2.21,11.32-4,14.24,2.82,10.15,2.82,10.15l9.28,21.06L200,487.83l4.28.91c-.08.5-.16,1-.25,1.51-1.19,6.71-2.74,12.88-4.64,14.55-4.63,4.1-4.43,22.43-4.43,22.43l.2,25.95s1.61,32,.81,33.16c-.51.74.51,1.94,3.2,3-.07.49-.15,1-.22,1.47-.76,5.31-1.1,11.36.64,14a10.68,10.68,0,0,1,1.21,4.68c0,2.54,3.83,7.81,3.83,7.81s-3,21.65,2,29.06,9.27,20.87,6.85,24c0,0-4.23,9.17-2.21,13.27s0,6.44-2.63,7.41-2.39,9-2.39,9l4.81,38s2.62,7.81.41,10.54-2.22,16.38,1.21,21.07S207.81,783,207.81,783s-5,7.22,3,9.56c0,0,1.61.39-1.41,3.51s-3.63,7-1.61,8.39a10.42,10.42,0,0,0,1.31.65c-.08.46-.16.94-.26,1.45-.77,4.07-2.23,9.38-4.88,11.94a85.1,85.1,0,0,0-13.2,17.59c-2.77,5.25-4,10.15-.91,12.46,7.26,5.46,16.53,7.21,22,5.07s13.1-8.78,13.1-8.78l1.82-7.61s-1.21-4.68,4.83-6.44,11.69-8,11.69-8V812.65a41.74,41.74,0,0,0,4.24-2.76s2.82-9.95,0-13.26-3.83-4.49-.2-6.64,4.12-6.82,1.45-10.92-6.9-10.14-3.27-18.73,5-34.92,5-34.92-1.69-17.94,0-22-1.94-12.29-1.94-12.29S249.73,681,252,676.27s4-29.46,4-29.46,4-10.53,4-17.36-6.24-23.21,3-27.51c0,0,4,3.52,2.42,17.56,0,0,4.63,16.39,4.63,21.46s3.43,23.41,3.43,23.41.4,5.85,1.81,8,0,8,0,8,5.24,4.88,3.83,8,.24,10.16.24,10.16l-1.25,43.68s-3.62,18.73,4.84,30c0,0-3,16.58-4.84,17.75s6.66,11.32,6.66,11.32-2.35,6.57,2.42,6.89v10.86a23.09,23.09,0,0,0,6.65,7.41c4.43,3.12,2.62,13.85,2.62,13.85s5.64,13.66,20.56,10.73,16.93-4.29,16.12-9.17c-.29-1.78-.93-5-1.86-8.56-1.6-6.26-4.06-13.82-7-17.55-4.63-5.88-8.46-18.17-8.46-18.17s-1.82-4.1,0-5.46,1-3.9,1-3.9,1.76-5.07.17-8.19,3.05-9.56,3.05-9.56l-1.41-30,1.41-43.7s-6.25-7.22-3.63-11.51-3-10.34-3-10.34-.61-.19,1-5.07a12.15,12.15,0,0,0-.41-8.78s-3.42-12.09,2.62-21.26c0,0,2.62-12.1,3.43-18.34.56-4.34,4-20.54,6.11-30l.34-1.54c3,.16,5.24.35,5.24.35s-4.63-32.19,0-38.82-3.63-57.35-3.63-57.35-2-8.86-3.19-17.91c-.07-.51-.13-1-.2-1.54a95.36,95.36,0,0,1,11.25-.25c9.68.58,19.15-3.12,19.35-6.83s5.45-18.34,6.25-21.65S363,431.26,361.6,428.53Z" transform="translate(-128.27 -40.25)" fill="url(#87b97b19-da95-49ff-b734-457e8a90150d)"/><path d="M244,804.84V822.9s-5.44,6.22-11.27,8-4.66,6.41-4.66,6.41l-1.74,7.57s-7.39,6.6-12.63,8.74-14.18.39-21.17-5.05c-3-2.29-1.79-7.18.88-12.4a84.48,84.48,0,0,1,12.72-17.51c2.55-2.55,4-7.84,4.7-11.89.56-3,.73-5.39.73-5.39Z" transform="translate(-128.27 -40.25)" fill="#4c495a"/><path d="M244,818.32v4.58s-5.44,6.22-11.27,8-4.66,6.41-4.66,6.41l-1.74,7.57s-7.39,6.6-12.63,8.74-14.18.39-21.17-5.05c-3-2.29-1.79-7.18.88-12.4-.13,5.49,1.5,11.65,9.41,11.43A40.14,40.14,0,0,0,226.32,839s-.2-12.81,8.74-15.73A27.08,27.08,0,0,0,244,818.32Z" transform="translate(-128.27 -40.25)" opacity="0.1"/><path d="M315.07,851.07c-14.37,2.91-19.81-10.69-19.81-10.69s1.75-10.68-2.52-13.79a22.89,22.89,0,0,1-6.41-7.38V801.35l17.48-12.43,9.46,8.37.64.56s3.69,12.24,8.16,18.09c2.83,3.71,5.2,11.24,6.75,17.48.89,3.58,1.51,6.75,1.79,8.52C331.39,846.79,329.45,848.15,315.07,851.07Z" transform="translate(-128.27 -40.25)" fill="#4c495a"/><path d="M315.07,851.07c-14.37,2.91-19.81-10.69-19.81-10.69s1.75-10.68-2.52-13.79a22.89,22.89,0,0,1-6.41-7.38v-6.92c2.77,2.93,8,8.6,9.13,11,1.55,3.3,1.75,15.35,8.93,17.48s21.17,4.08,22.34-1.36a29.73,29.73,0,0,1,2.09-6c.89,3.58,1.51,6.75,1.79,8.52C331.39,846.79,329.45,848.15,315.07,851.07Z" transform="translate(-128.27 -40.25)" opacity="0.1"/><path d="M211.55,801.35,244,804.84v9.55c-3.66,2.17-8.9,4.47-11.85,2.1-4.35-3.48-17.28-7.9-21.32-9.75C211.38,803.7,211.55,801.35,211.55,801.35Z" transform="translate(-128.27 -40.25)" opacity="0.1"/><path d="M313.91,799.4c-4.47-1.55-12.43,5.25-22.92,9.52a10.89,10.89,0,0,1-4.66,1v-8.61l17.48-12.43,9.46,8.37A12,12,0,0,0,313.91,799.4Z" transform="translate(-128.27 -40.25)" opacity="0.1"/><path d="M325.37,585.57s-.62,2.85-1.49,7c-2,9.44-5.36,25.58-5.89,29.9-.78,6.21-3.3,18.25-3.3,18.25-5.83,9.13-2.53,21.17-2.53,21.17a12.49,12.49,0,0,1,.39,8.74c-1.55,4.86-1,5-1,5s5.44,6,2.91,10.3,3.5,11.46,3.5,11.46l-1.36,43.5L318,770.85s-4.47,6.41-2.94,9.52-.17,8.16-.17,8.16.78,2.52-1,3.88,0,5.44,0,5.44c-4.47-1.55-12.43,5.24-22.92,9.52s-7-5.83-7-5.83-8.16-10.1-6.41-11.27,4.66-17.67,4.66-17.67c-8.16-11.26-4.66-29.91-4.66-29.91l1.2-43.49s-1.59-7-.23-10.11-3.69-8-3.69-8,1.36-5.82,0-8-1.75-8-1.75-8-3.3-18.26-3.3-23.31-4.47-21.36-4.47-21.36c1.56-14-2.33-17.48-2.33-17.48-8.93,4.27-2.91,20.58-2.91,27.38s-3.88,17.29-3.88,17.29-1.75,24.66-3.89,29.32S249,691.8,249,691.8s3.5,8.16,1.86,12.24,0,22,0,22-1.28,26.22-4.77,34.76.58,14.57,3.15,18.65,2.09,8.74-1.41,10.87-2.52,3.31.2,6.61,0,13.21,0,13.21-11.07,8.74-15.93,4.85-20.39-8.93-22.33-10.29-1.36-5.25,1.55-8.35,1.36-3.5,1.36-3.5c-7.77-2.33-2.91-9.52-2.91-9.52s8-8.54,4.66-13.2-3.3-18.26-1.17-21-.39-10.49-.39-10.49l-4.63-37.87s-.22-8,2.3-8.94,4.47-3.3,2.53-7.38,2.13-13.2,2.13-13.2c2.34-3.11-1.74-16.51-6.6-23.89s-1.94-28.94-1.94-28.94-3.69-5.25-3.69-7.77a10.87,10.87,0,0,0-1.17-4.66c-1.67-2.67-1.35-8.69-.62-14,.71-5.11,1.79-9.52,1.79-9.52Z" transform="translate(-128.27 -40.25)" fill="#5f5d7e"/><path d="M287.3,365.51,249,374.45S230.2,358.52,234.86,350c1.6-2.93,2.31-7.94,2.55-13.24.19-4.14.08-8.47-.09-12.13-.28-5.29-.71-9.2-.71-9.2s39.23-22.14,37.87,0a56.27,56.27,0,0,0,.26,11.07A21.13,21.13,0,0,0,277,334c2.1,3.73,4.69,3.79,4.69,3.79Z" transform="translate(-128.27 -40.25)" fill="#fdc2cc"/><path d="M274.74,326.47a30.08,30.08,0,0,1-37.42-1.87c-.28-5.29-.71-9.2-.71-9.2s39.23-22.14,37.87,0A56.27,56.27,0,0,0,274.74,326.47Z" transform="translate(-128.27 -40.25)" opacity="0.1"/><circle cx="128.93" cy="260.98" r="30.1" fill="#fdc2cc"/><path d="M287.3,365.51,249,374.45S230.2,358.52,234.86,350c1.6-2.93,2.31-7.94,2.55-13.24a19.5,19.5,0,0,0,7,11.69c8.74,5.83,7.38,13,7.38,13l15.73-.58c-1-6.41,4.86-9.9,6.8-10.68s1-4.27,1-4.27L277,334c2.1,3.73,4.69,3.79,4.69,3.79Z" transform="translate(-128.27 -40.25)" opacity="0.1"/><path d="M325.37,585.57s-.62,2.85-1.49,7c-4.23-.22-9.82-.39-12.3.18-4.27,1-21.37,1.36-21.37,1.36l-42.34,1.5v-1.3a124.83,124.83,0,0,0-14.56,1c-7.19,1-18.45-.39-25.64-1.56a27.58,27.58,0,0,1-6.45-1.74c.71-5.11,1.79-9.52,1.79-9.52Z" transform="translate(-128.27 -40.25)" opacity="0.1"/><path d="M322.07,462.23c-.62,3.63-.17,9.65.61,15.58,1.17,9,3.08,17.83,3.08,17.83s8,50.5,3.49,57.1,0,38.65,0,38.65-13.4-1.16-17.67-.19-21.37,1.36-21.37,1.36l-42.34,1.5v-1.31a124.83,124.83,0,0,0-14.56,1c-7.19,1-18.45-.39-25.64-1.55s-10.1-3.5-9.32-4.66-.78-33-.78-33l-.19-25.83s-.2-18.26,4.27-22.34c1.82-1.66,3.32-7.8,4.47-14.49,1.64-9.67,2.52-20.47,2.52-20.47l-29.52-79-.58-1.56s8.54-13.21,7.18-19.62,8-12,8-12,17.67-7.77,18.84-10.1,13.4-2.91,13.4-2.91,7-3.69,8.19-6.08a4.61,4.61,0,0,1,3.26-2.65,19.56,19.56,0,0,0,7,11.84c8.74,5.82,7.38,13,7.38,13l15.73-.58c-1-6.41,4.86-9.91,6.8-10.68s1-4.28,1-4.28l1.82-12.57c.84-2.09,6.72,5.91,6.72,5.91s15,5.11,15.93,5.5,13.6,4.27,13.6,4.27,15.53,10.1,15.53,12.62,8.55,16.13,8.55,16.13-.1.54-.29,1.53C335.15,390.77,323.49,453.88,322.07,462.23Z" transform="translate(-128.27 -40.25)" fill="#e96683"/><path d="M259.92,430.77s-33.6-8.93-36.91-11.07-22.72,10.29,1,27.19c0,0,29,6,36.73,0S259.92,430.77,259.92,430.77Z" transform="translate(-128.27 -40.25)" fill="#fdc2cc"/><path d="M332.55,377.55l4.08.2,12,32.24s7.19,16.9,8.55,19.62.78,14,0,17.28-5.83,17.87-6,21.56-9.32,7.38-18.65,6.8-31.07,2.33-31.07,2.33-23.23-2.43-37.49,4.85c0,0-9.12-18.84-8.15-54,0,0,16.12-1,20.2.58s23.89,6,26.41,3.69,14,4.28,14,4.28a9.82,9.82,0,0,0,0-8.16c-1.94-4.66-5.24-19.23-1-23.89S332.55,377.55,332.55,377.55Z" transform="translate(-128.27 -40.25)" opacity="0.1"/><path d="M322.68,477.81c-9.64.65-20.42,2.1-20.42,2.1s-23.23-2.43-37.49,4.85c0,0-9.13-18.84-8.16-54,0,0,16.12-1,20.2.58s23.89,6,26.42,3.69,14,4.28,14,4.28a9.86,9.86,0,0,0,0-8.16c-1.94-4.66-5.24-19.23-1-23.89s17.09-27.39,17.09-27.39l3.79.18c-2,10.71-13.63,73.82-15.05,82.17C321.45,465.86,321.9,471.88,322.68,477.81Z" transform="translate(-128.27 -40.25)" opacity="0.1"/><path d="M333.33,378.33l4.08.2,12,32.24s7.19,16.89,8.55,19.61.77,14,0,17.29-5.83,17.87-6,21.56-9.33,7.38-18.65,6.79-31.07,2.34-31.07,2.34-23.24-2.43-37.49,4.85c0,0-9.13-18.84-8.16-54,0,0,16.12-1,20.2.58s23.89,6,26.42,3.69,14,4.27,14,4.27a9.83,9.83,0,0,0,0-8.15c-1.94-4.67-5.24-19.23-1-23.89S333.33,378.33,333.33,378.33Z" transform="translate(-128.27 -40.25)" fill="#e96683"/><rect x="305.37" y="403.71" width="5.7" height="51.3" transform="translate(215.98 916.42) rotate(-148.23)" fill="#dfe6f5"/><ellipse cx="328.21" cy="397.09" rx="16.42" ry="11.51" transform="translate(-310.45 426.84) rotate(-58.23)" fill="#dfe6f5"/><ellipse cx="328.21" cy="397.09" rx="11.78" ry="8.26" transform="translate(-310.45 426.84) rotate(-58.23)" opacity="0.1"/><rect x="286.47" y="443.93" width="5.7" height="31.92" transform="translate(164.93 962.96) rotate(-148.23)" fill="#53526b"/><path d="M250,473.89l11.85-3.3s58.46,1.55,38.84-22.53c0,0-10.29-9.91-31.85-1.95s-27.58,8.94-27.58,8.94Z" transform="translate(-128.27 -40.25)" fill="#fdc2cc"/><circle cx="113" cy="329.73" r="2.33" opacity="0.1"/><circle cx="153.01" cy="328.37" r="2.33" opacity="0.1"/><circle cx="113" cy="328.95" r="2.33" fill="#fff"/><circle cx="116.31" cy="361.97" r="2.33" opacity="0.1"/><circle cx="154.18" cy="359.64" r="2.33" opacity="0.1"/><circle cx="116.31" cy="361.19" r="2.33" fill="#fff"/><circle cx="153.21" cy="472.11" r="2.33" opacity="0.1"/><circle cx="122.53" cy="472.11" r="2.33" opacity="0.1"/><circle cx="153.21" cy="471.33" r="2.33" fill="#fff"/><circle cx="124.86" cy="511.13" r="2.33" opacity="0.1"/><circle cx="154.18" cy="508.8" r="2.33" opacity="0.1"/><circle cx="124.86" cy="510.36" r="2.33" fill="#fff"/><circle cx="122.53" cy="471.33" r="2.33" fill="#fff"/><circle cx="154.18" cy="508.02" r="2.33" fill="#fff"/><circle cx="153.01" cy="327.59" r="2.33" fill="#fff"/><circle cx="154.18" cy="358.86" r="2.33" fill="#fff"/><path d="M285.94,480.88s.39,53.22,1.56,62.73C287.5,543.61,287.92,483.39,285.94,480.88Z" transform="translate(-128.27 -40.25)" opacity="0.1"/><path d="M295.85,505.55c-.8,0,15.92,62.34,16.7,66.81S300.51,505.55,295.85,505.55Z" transform="translate(-128.27 -40.25)" opacity="0.1"/><path d="M309.05,495.45c0,.58,9.33,33.79,14,35.54S309.05,495.45,309.05,495.45Z" transform="translate(-128.27 -40.25)" opacity="0.1"/><path d="M345.76,430.77s-19.81.88-20.39,3.74S345.76,430.77,345.76,430.77Z" transform="translate(-128.27 -40.25)" opacity="0.1"/><path d="M310.8,684s-14.18,6-12,6.4S310.8,684,310.8,684Z" transform="translate(-128.27 -40.25)" opacity="0.1"/><path d="M281.47,675.1c-.55-1.24,9.52,5,9.52,5.83S282.25,676.85,281.47,675.1Z" transform="translate(-128.27 -40.25)" opacity="0.1"/><path d="M294.68,695.49s11.07-.55,11.85,3.71S294.68,695.49,294.68,695.49Z" transform="translate(-128.27 -40.25)" opacity="0.1"/><path d="M215.05,695.47s12-2.35,13,0S215.05,695.47,215.05,695.47Z" transform="translate(-128.27 -40.25)" opacity="0.1"/><path d="M219.52,768.72s.79,9.9-2.13,12.23S219.52,768.72,219.52,768.72Z" transform="translate(-128.27 -40.25)" opacity="0.1"/><path d="M218.05,789.69c3.8.39,23.8-3.11,23.61,0S218.05,789.69,218.05,789.69Z" transform="translate(-128.27 -40.25)" opacity="0.1"/><path d="M309.83,777.65s-6.82-1-5.16,3.55Z" transform="translate(-128.27 -40.25)" opacity="0.1"/><path d="M183,390h-3.69l-5.63,20.59s-1.94,7.19-3.88,8.94,1.74,17.67,1.74,17.67-2.13,11.27-3.88,14.18,2.72,10.1,2.72,10.1l8.93,21,23.7,6.22s41.76,9.13,43.7,10.49,3.69-.59,5-13.21,5.05-37.1,8-38.26c0,0-23.31,2.52-25.25,2.13s-11.26.2-11.26.2-12.24-.78-14.18.39,2.52-5.64,2.52-5.64a18.74,18.74,0,0,0,0-9.51C210.19,430,209.42,370.56,183,390Z" transform="translate(-128.27 -40.25)" opacity="0.1"/><path d="M258.94,450c-2.91,1.16-6.6,25.64-8,38.26s-3.11,14.57-5,13.21c-1.58-1.11-29.41-7.34-39.81-9.64,1.64-9.67,2.52-20.47,2.52-20.47l-29.52-79h3.11c26.41-19.43,27.19,40,28.55,45.25a18.74,18.74,0,0,1,0,9.51s-4.47,6.8-2.53,5.64,14.18-.39,14.18-.39,9.32-.58,11.27-.19S258.94,450,258.94,450Z" transform="translate(-128.27 -40.25)" opacity="0.1"/><path d="M182.23,390.76h-3.69l-5.64,20.59s-1.94,7.18-3.88,8.93S170.77,438,170.77,438s-2.14,11.26-3.89,14.18,2.72,10.09,2.72,10.09l8.94,21,23.69,6.22s41.76,9.12,43.7,10.48,3.69-.58,5-13.2,5-37.1,8-38.26c0,0-23.3,2.52-25.24,2.13s-11.27.2-11.27.2-12.24-.78-14.18.38,2.53-5.64,2.53-5.64a18.73,18.73,0,0,0,0-9.51C209.42,430.77,208.64,371.34,182.23,390.76Z" transform="translate(-128.27 -40.25)" fill="#e96683"/><path d="M194.85,461.07s-10.68,20.2-12.62,17.87S194.85,461.07,194.85,461.07Z" transform="translate(-128.27 -40.25)" opacity="0.1"/><path d="M183.78,449.57s-9.9,8.2-5.24,10.33S183.78,449.57,183.78,449.57Z" transform="translate(-128.27 -40.25)" opacity="0.1"/><path d="M193.1,439.51c.78.2,14.38,2.9,14.57,4.07S193.1,439.51,193.1,439.51Z" transform="translate(-128.27 -40.25)" opacity="0.1"/><path d="M287.39,297.23a2,2,0,0,0-1.33,2.08c-.79.7-1.91-.12-2.55-1s-1.39-2-2.38-1.86a8.36,8.36,0,0,0-1.36.57c-1.55.49-2.86-1.33-3.73-2.93l-4.55-8.41c-3,1.77-6.63-.08-9.64-1.91s-6.6-3.68-9.65-1.92c-4.47,2.58-4.63,11.18-9.26,13.3-1.49.69-3.22.54-4.61,1.48s-2.1,2.73-2.72,4.44a4.64,4.64,0,0,1-1.52,2.51,3.28,3.28,0,0,1-1.57.38,6.68,6.68,0,0,1-4-.57,3.41,3.41,0,0,1-1.4-4,1.71,1.71,0,0,1,.13-.23,14,14,0,0,0,1.33-1.92c.47-1.23-.2-2.67,0-4,.24-2.28,2.66-3.49,3.07-5.73.17-.88,0-1.82.15-2.7a3.57,3.57,0,0,1,.1-.35l-1.42,1c1.59-1.85,2.39-4.43,3.55-6.69a20.61,20.61,0,0,1,12.57-10.23c5.07-1.47,10.42-1.07,15.53.18a51.33,51.33,0,0,1,13.83,5.69,13.85,13.85,0,0,1,4,3.28,25.08,25.08,0,0,1,2.38,4.4c1.51,3.12,5.63,6,2.35,6.45-2.73.36-.24,2.27,1.19,3.56a3.73,3.73,0,0,1,.82.91,3.2,3.2,0,0,1-.17,3.11C285.91,296.75,288.15,296.89,287.39,297.23Z" transform="translate(-128.27 -40.25)" opacity="0.1"/><path d="M287.39,296.46a2,2,0,0,0-1.33,2.08c-.79.7-1.91-.13-2.55-1s-1.39-2-2.38-1.86a8.36,8.36,0,0,0-1.36.57c-1.55.5-2.86-1.33-3.73-2.93-1.52-2.8-3-5.61-4.55-8.4-3,1.76-6.63-.09-9.64-1.92s-6.6-3.68-9.65-1.92c-4.47,2.58-4.63,11.18-9.26,13.31-1.49.68-3.22.53-4.61,1.47s-2.1,2.73-2.72,4.45a4.61,4.61,0,0,1-1.52,2.5,3.29,3.29,0,0,1-1.57.39,6.75,6.75,0,0,1-4-.57,3.43,3.43,0,0,1-1.4-4,1.71,1.71,0,0,1,.13-.23c.39-.68,1-1.16,1.33-1.92.47-1.23-.2-2.67,0-4,.24-2.29,2.66-3.49,3.07-5.74.17-.88,0-1.82.15-2.7a3.37,3.37,0,0,1,.1-.34l-1.42,1c1.59-1.86,2.39-4.44,3.55-6.69a20.63,20.63,0,0,1,12.57-10.24c5.07-1.47,10.42-1.07,15.53.18a51,51,0,0,1,13.83,5.7,13.65,13.65,0,0,1,4,3.27,25.08,25.08,0,0,1,2.38,4.4c1.51,3.13,5.63,6,2.35,6.45-2.73.37-.24,2.28,1.19,3.57a3.56,3.56,0,0,1,.82.9,3.2,3.2,0,0,1-.17,3.11C285.91,296,288.15,296.11,287.39,296.46Z" transform="translate(-128.27 -40.25)" fill="#865a61"/><path d="M285.81,291.26l-.31,3.27s-32.6-41.32-58,5.34c0,0-.12-.57-.33-1.53.39-.68,1-1.16,1.33-1.92.47-1.23-.2-2.67,0-4,.24-2.29,2.66-3.49,3.07-5.74.17-.88,0-1.82.15-2.7a3.37,3.37,0,0,1,.1-.34l-1.42,1c1.59-1.86,2.39-4.44,3.55-6.69a20.63,20.63,0,0,1,12.57-10.24c5.07-1.47,10.42-1.07,15.53.18a51,51,0,0,1,13.83,5.7,13.65,13.65,0,0,1,4,3.27,25.08,25.08,0,0,1,2.38,4.4c1.51,3.13,5.63,6,2.35,6.45C281.89,288.06,284.38,290,285.81,291.26Z" transform="translate(-128.27 -40.25)" opacity="0.1"/><g opacity="0.1"><path d="M286.61,296a1.61,1.61,0,0,0-.37,1.35c-.79.7-1.9-.13-2.54-1s-1.4-2-2.38-1.86a8,8,0,0,0-1.36.57c-1.56.5-2.87-1.33-3.74-2.93l-4.54-8.41c-3,1.77-6.63-.08-9.64-1.91s-6.61-3.68-9.65-1.92c-4.47,2.58-4.63,11.18-9.26,13.3-1.5.69-3.23.54-4.61,1.48s-2.11,2.73-2.72,4.44a4.7,4.7,0,0,1-1.52,2.51,3.22,3.22,0,0,1-1.57.38,6.66,6.66,0,0,1-4-.56,3.69,3.69,0,0,1-1.52-2.14,3.5,3.5,0,0,0,1.52,3.69,6.74,6.74,0,0,0,4,.57,3.46,3.46,0,0,0,1.57-.38,4.74,4.74,0,0,0,1.52-2.51c.61-1.72,1.35-3.51,2.72-4.45s3.11-.79,4.61-1.47c4.63-2.12,4.79-10.72,9.26-13.3,3-1.77,6.63.09,9.65,1.92s6.6,3.67,9.64,1.91l4.54,8.4c.87,1.6,2.18,3.43,3.74,2.93a8.85,8.85,0,0,1,1.36-.56c1-.13,1.72,1,2.38,1.85s1.75,1.72,2.54,1a2,2,0,0,1,1.33-2.08C288.18,296.58,286.89,296.43,286.61,296Z" transform="translate(-128.27 -40.25)"/><path d="M284.07,288.27a2.75,2.75,0,0,1,.74-.18c1.44-.2,1.45-.87.88-1.82a2.3,2.3,0,0,1-.88.26C283.25,286.74,283.39,287.46,284.07,288.27Z" transform="translate(-128.27 -40.25)"/><path d="M287.05,294.78a3.54,3.54,0,0,0,0-1.52,2.28,2.28,0,0,1-.39.85C286.4,294.42,286.7,294.62,287.05,294.78Z" transform="translate(-128.27 -40.25)"/><path d="M228.72,292.54a2.51,2.51,0,0,0,0,.27,8.74,8.74,0,0,0,.15,2.09A7.56,7.56,0,0,0,228.72,292.54Z" transform="translate(-128.27 -40.25)"/><path d="M231.88,283.06a12.08,12.08,0,0,1-1.31,1.95l1.26-.86A6.58,6.58,0,0,1,231.88,283.06Z" transform="translate(-128.27 -40.25)"/></g><path d="M227.54,299.09s-4.69-21-3.2-24.32c0,0-4-8.3-4-10.28a19.68,19.68,0,0,0-3-9.29c-2.13-3.36-4.47-19,8.31-22.73s22.59-7.12,24.08-9.69,23.44-1,29.41,8.9,9.8,7.9,9.8,7.9,9.16,5.74,9.16,10.88-2.77,7.71,0,8.89.64,22.54-11.51,23.13l-1.06,11.27S252.9,252.43,227.54,299.09Z" transform="translate(-128.27 -40.25)" fill="#e96683"/><path d="M228.94,236.55s-2.82,16.51,2.33,22Z" transform="translate(-128.27 -40.25)" opacity="0.1"/><path d="M242.14,232.76s-7.18,17.68-5.43,21.08Z" transform="translate(-128.27 -40.25)" opacity="0.1"/><path d="M248.36,227.13s-4.86,23-2.53,24.86Z" transform="translate(-128.27 -40.25)" opacity="0.1"/><path d="M256.71,233.34s-6,14.77-3.59,16.8Z" transform="translate(-128.27 -40.25)" opacity="0.1"/><path d="M268.07,235.09s-7.09,12-5.63,14.18Z" transform="translate(-128.27 -40.25)" opacity="0.1"/><path d="M282.64,246.84s-7.58,2-6,4.47Z" transform="translate(-128.27 -40.25)" opacity="0.1"/><path d="M289.83,259.37s-6.8,3.3-5.54,5.05Z" transform="translate(-128.27 -40.25)" opacity="0.1"/><path d="M224.34,274.77s43.42-17.63,62.22,7.71C286.56,282.48,263.74,263.08,224.34,274.77Z" transform="translate(-128.27 -40.25)" opacity="0.1"/><polygon points="80.39 379.43 86.44 373.31 103.54 390.22 97.49 396.34 81.76 380.79 80.39 379.43" fill="#53526b"/><path d="M169,380.45s26.47,2.25,51.12,30l-10.27,10.39Z" transform="translate(-128.27 -40.25)" fill="#dfe6f5"/><path d="M248.39,430.05s-25.45-9.28-27.95-11.5-17.22,10.69.73,28.24c0,0,22,6.25,27.82,0S248.39,430.05,248.39,430.05Z" transform="translate(-128.27 -40.25)" fill="#fdc2cc"/><rect x="858.05" y="511.12" width="5.17" height="116.44" fill="#535461"/><path d="M1024,667.45l-.33,5.25-.45,7.4-.19,3.08-.46,7.41-.2,3.09-.46,7.4-5.21,84.19a14.27,14.27,0,0,1-14.24,13.38h-27.1a14.26,14.26,0,0,1-14.23-13.38l-5.22-84.19-.46-7.4-.19-3.09-.47-7.41-.18-3.08-.46-7.4-.33-5.25a7.38,7.38,0,0,1,7.37-7.84h55.45A7.38,7.38,0,0,1,1024,667.45Z" transform="translate(-128.27 -40.25)" fill="#65617d"/><polygon points="895.4 632.45 894.94 639.85 826.33 639.85 825.87 632.45 895.4 632.45" fill="#9d9cb5"/><polygon points="894.75 642.93 894.29 650.34 826.98 650.34 826.52 642.93 894.75 642.93" fill="#9d9cb5"/><polygon points="894.09 653.43 893.64 660.83 827.63 660.83 827.17 653.43 894.09 653.43" fill="#9d9cb5"/><path d="M946.24,595c30.12,21.79,42.66,55.87,42.66,55.87s-36.29-1.24-66.41-23S879.83,572,879.83,572,916.12,573.22,946.24,595Z" transform="translate(-128.27 -40.25)" fill="#e96683"/><path d="M879.83,572s37.67,20.91,49.75,38.22,59.32,40.68,59.32,40.68" transform="translate(-128.27 -40.25)" fill="none" stroke="#535461" stroke-miterlimit="10" stroke-width="2"/><path d="M965.68,551.11c16.39,11.86,23.22,30.41,23.22,30.41s-19.75-.68-36.15-12.53-23.22-30.41-23.22-30.41S949.29,539.25,965.68,551.11Z" transform="translate(-128.27 -40.25)" fill="#e96683"/><path d="M929.53,538.58S950,550,956.61,559.38s32.29,22.14,32.29,22.14" transform="translate(-128.27 -40.25)" fill="none" stroke="#535461" stroke-miterlimit="10" stroke-width="2"/><path d="M1012.72,580.58c-18.83,20.69-22.81,47.74-22.81,47.74s26.55-6.52,45.38-27.21,22.81-47.74,22.81-47.74S1031.55,559.88,1012.72,580.58Z" transform="translate(-128.27 -40.25)" fill="#e96683"/><path d="M1058.1,553.37s-24.53,21.21-30.76,35.83-37.43,39.12-37.43,39.12" transform="translate(-128.27 -40.25)" fill="none" stroke="#535461" stroke-miterlimit="10" stroke-width="2"/>
</symbol>
<symbol id="credit-card" viewBox="0 0 915.69 679.28"><defs><linearGradient id="fc905628-b5a5-44d2-a4d3-c3e7b0ae88f3" x1="549.23" y1="734.77" x2="549.23" y2="126.57" gradientTransform="matrix(0.97, 0.31, -0.3, 0.99, 144.2, -171.29)" gradientUnits="userSpaceOnUse"><stop offset="0" stop-color="gray" stop-opacity="0.25"/><stop offset="0.54" stop-color="gray" stop-opacity="0.12"/><stop offset="1" stop-color="gray" stop-opacity="0.1"/></linearGradient><linearGradient id="c95e1ae4-289c-4d69-a4b2-d524402207e9" x1="549.32" y1="679.28" x2="549.32" y2="233.84" gradientTransform="matrix(1, 0, 0, 1, 0, 0)" xlink:href="#fc905628-b5a5-44d2-a4d3-c3e7b0ae88f3"/><linearGradient id="179a080d-7ec3-4ffe-a5de-62706a541b28" x1="888.78" y1="569.3" x2="888.78" y2="526.2" gradientUnits="userSpaceOnUse"><stop offset="0" stop-opacity="0.12"/><stop offset="0.55" stop-opacity="0.09"/><stop offset="1" stop-opacity="0.02"/></linearGradient><linearGradient id="70237d60-1aff-4f66-bd15-fe7ff4f620b4" x1="888.78" y1="646.14" x2="888.78" y2="603.03" xlink:href="#179a080d-7ec3-4ffe-a5de-62706a541b28"/><linearGradient id="23a7cc45-3634-41c8-b854-b6dad7f03557" x1="741.39" y1="487.05" x2="741.39" y2="464.56" xlink:href="#179a080d-7ec3-4ffe-a5de-62706a541b28"/><linearGradient id="8b580cf0-29ea-4363-9065-3a98b2499819" x1="949.9" y1="646.14" x2="949.9" y2="603.03" xlink:href="#179a080d-7ec3-4ffe-a5de-62706a541b28"/><linearGradient id="64ac1773-8f45-4df6-a418-07dc494bdcee" x1="949.9" y1="569.3" x2="949.9" y2="526.2" xlink:href="#179a080d-7ec3-4ffe-a5de-62706a541b28"/><linearGradient id="4722d46c-9d1d-46a6-8fd6-e88ecc3eaff1" x1="812.99" y1="487.05" x2="812.99" y2="464.56" xlink:href="#179a080d-7ec3-4ffe-a5de-62706a541b28"/></defs><title>credit card</title><rect x="184.86" y="201.53" width="728.62" height="445" rx="27.5" ry="27.5" transform="translate(-243.25 71.69) rotate(-17.26)" fill="url(#fc905628-b5a5-44d2-a4d3-c3e7b0ae88f3)"/><rect x="193.72" y="205.56" width="713.76" height="429.25" rx="27.5" ry="27.5" transform="translate(-242.04 71.94) rotate(-17.26)" fill="#fff"/><rect x="155.95" y="267.86" width="713.76" height="61.56" transform="translate(-207.68 55.26) rotate(-17.26)" fill="#e96683"/><rect x="303.67" y="610.49" width="181.35" height="26.62" transform="translate(-309.5 34.75) rotate(-17.26)" fill="#bdbdbd"/><rect x="287.34" y="547.84" width="314.45" height="26.62" transform="translate(-288.65 46.83) rotate(-17.26)" fill="#e0e0e0"/><rect x="182.96" y="233.84" width="732.73" height="445.44" rx="27.5" ry="27.5" fill="url(#c95e1ae4-289c-4d69-a4b2-d524402207e9)"/><rect x="191.28" y="238.38" width="713.76" height="429.25" rx="27.5" ry="27.5" fill="#fff"/><rect x="247.01" y="305.76" width="20.8" height="59.06" fill="#e0e0e0"/><rect x="273.63" y="305.76" width="20.8" height="59.06" fill="#e0e0e0"/><rect x="300.25" y="305.76" width="20.8" height="59.06" fill="#e0e0e0"/><rect x="346.84" y="305.76" width="20.8" height="59.06" fill="#e0e0e0"/><rect x="373.46" y="305.76" width="20.8" height="59.06" fill="#e0e0e0"/><rect x="400.08" y="305.76" width="20.8" height="59.06" fill="#e0e0e0"/><rect x="446.66" y="305.76" width="20.8" height="59.06" fill="#e0e0e0"/><rect x="473.29" y="305.76" width="20.8" height="59.06" fill="#e0e0e0"/><rect x="499.91" y="305.76" width="20.8" height="59.06" fill="#e0e0e0"/><rect x="546.49" y="305.76" width="20.8" height="59.06" fill="#e0e0e0"/><rect x="573.11" y="305.76" width="20.8" height="59.06" fill="#e0e0e0"/><rect x="599.73" y="305.76" width="20.8" height="59.06" fill="#e0e0e0"/><rect x="247.01" y="603.57" width="181.35" height="26.62" fill="#bdbdbd"/><rect x="247.01" y="558.65" width="314.45" height="26.62" fill="#e0e0e0"/><path d="M906.25,568.21a4.38,4.38,0,0,1,4.22-4.53h6.26V526.2H860.84v43.1h45.4Z" transform="translate(-142.16 -110.36)" fill="url(#179a080d-7ec3-4ffe-a5de-62706a541b28)"/><path d="M910.47,608.66a4.38,4.38,0,0,1-4.22-4.53V603h-45.4v43.1h55.88V608.66Z" transform="translate(-142.16 -110.36)" fill="url(#70237d60-1aff-4f66-bd15-fe7ff4f620b4)"/><rect x="718.69" y="464.56" width="45.4" height="22.49" fill="url(#23a7cc45-3634-41c8-b854-b6dad7f03557)"/><path d="M932.44,604.13a4.38,4.38,0,0,1-4.22,4.53H922v37.48h55.88V603h-45.4Z" transform="translate(-142.16 -110.36)" fill="url(#8b580cf0-29ea-4363-9065-3a98b2499819)"/><path d="M922,526.2v37.48h6.26a4.38,4.38,0,0,1,4.22,4.53v1.09h45.4V526.2Z" transform="translate(-142.16 -110.36)" fill="url(#64ac1773-8f45-4df6-a418-07dc494bdcee)"/><rect x="790.28" y="464.56" width="45.4" height="22.49" fill="url(#4722d46c-9d1d-46a6-8fd6-e88ecc3eaff1)"/><path d="M906.44,568.63a4,4,0,0,1,4-4h6V531.34h-53.3V569.6h43.31Z" transform="translate(-142.16 -110.36)" fill="#e96683"/><path d="M910.46,604.54a4,4,0,0,1-4-4v-1H863.13v38.27h53.3V604.54Z" transform="translate(-142.16 -110.36)" fill="#e96683"/><rect x="720.97" y="464.23" width="43.31" height="19.97" fill="#e96683"/><path d="M931.42,600.52a4,4,0,0,1-4,4h-6v33.28h53.3V599.55H931.42Z" transform="translate(-142.16 -110.36)" fill="#e96683"/><path d="M921.43,531.34v33.28h6a4,4,0,0,1,4,4v1h43.31V531.34Z" transform="translate(-142.16 -110.36)" fill="#e96683"/><rect x="789.27" y="464.23" width="43.31" height="19.97" fill="#e96683"/>
</symbol>
<symbol id="eating" viewBox="0 0 903.77 657.14"><defs><linearGradient id="a8b3c97d-e0d9-42bd-b729-a4d45980fc6b" x1="736" y1="734.18" x2="736" y2="307.18" gradientUnits="userSpaceOnUse"><stop offset="0" stop-color="gray" stop-opacity="0.25"/><stop offset="0.54" stop-color="gray" stop-opacity="0.12"/><stop offset="1" stop-color="gray" stop-opacity="0.1"/></linearGradient><linearGradient id="b66fe85f-ad74-4eee-9789-144feaee2a7f" x1="381.42" y1="718.18" x2="381.42" y2="312.18" xlink:href="#a8b3c97d-e0d9-42bd-b729-a4d45980fc6b"/></defs><title>eating_together</title><ellipse cx="63.87" cy="514.57" rx="45" ry="16" opacity="0.1"/><ellipse cx="790.85" cy="580.72" rx="45" ry="16" opacity="0.1"/><path d="M681,139.86c-68.48,26.45-142.71,27.68-211.66,2.78C371.62,107.36,244,98.33,196.71,260,116,536.21,281.12,634.8,281.12,634.8s115.28,25.84,179.11,72.53c90.67,66.32,201.71,88.49,306.31,57.39,66.89-19.89,124.22-52.52,140.61-105.91,45.84-149.32,16.74-239.07,99.7-278.44s36.8-185.22-22.2-188.53-198,30.52-241-36.77C728.32,131.18,704.87,130.63,681,139.86Z" transform="translate(-148.11 -121.43)" opacity="0.1"/><path d="M937.14,704.42s12-40.84-2.26-70.9a64.51,64.51,0,0,1-5.22-40.47,108.49,108.49,0,0,1,5.73-19" transform="translate(-148.11 -121.43)" fill="none" stroke="#535461" stroke-miterlimit="10" stroke-width="2"/><path d="M926.51,555.06c0,5,9.06,19.52,9.06,19.52s9.06-14.51,9.06-19.52a9.06,9.06,0,0,0-18.13,0Z" transform="translate(-148.11 -121.43)" fill="#e96683"/><path d="M911.53,582.79c2.72,4.2,18.22,11.46,18.22,11.46s-.28-17.11-3-21.31a9.06,9.06,0,1,0-15.21,9.85Z" transform="translate(-148.11 -121.43)" fill="#e96683"/><path d="M912.18,630.16c4.47,2.25,21.51.7,21.51.7s-8.88-14.63-13.35-16.88a9.06,9.06,0,1,0-8.16,16.18Z" transform="translate(-148.11 -121.43)" fill="#e96683"/><path d="M920.75,665.9c4,3,21.08,4.32,21.08,4.32s-6.28-15.92-10.3-18.89a9.06,9.06,0,0,0-10.78,14.57Z" transform="translate(-148.11 -121.43)" fill="#e96683"/><path d="M948.77,595.22c-3.59,3.49-20.32,7.1-20.32,7.1s4.1-16.61,7.69-20.1a9.06,9.06,0,0,1,12.63,13Z" transform="translate(-148.11 -121.43)" fill="#e96683"/><path d="M958.26,637.13c-4.47,2.25-21.51.7-21.51.7S945.63,623.2,950.1,621a9.06,9.06,0,0,1,8.16,16.18Z" transform="translate(-148.11 -121.43)" fill="#e96683"/><path d="M961.89,679.14c-4,3-21.08,4.32-21.08,4.32s6.28-15.92,10.3-18.89a9.06,9.06,0,0,1,10.78,14.57Z" transform="translate(-148.11 -121.43)" fill="#e96683"/><path d="M212,636.12S237.69,549,207.2,484.8c-12.8-26.93-17-57.15-11.13-86.37a231.54,231.54,0,0,1,12.23-40.54" transform="translate(-148.11 -121.43)" fill="none" stroke="#535461" stroke-miterlimit="10" stroke-width="2"/><path d="M189.33,317.34c0,10.68,19.34,41.66,19.34,41.66S228,328,228,317.34a19.34,19.34,0,1,0-38.68,0Z" transform="translate(-148.11 -121.43)" fill="#e96683"/><path d="M157.36,376.51c5.81,9,38.88,24.46,38.88,24.46s-.6-36.52-6.41-45.48a19.34,19.34,0,0,0-32.47,21Z" transform="translate(-148.11 -121.43)" fill="#e96683"/><path d="M158.75,477.63c9.54,4.81,45.91,1.49,45.91,1.49s-19-31.22-28.49-36a19.34,19.34,0,0,0-17.42,34.54Z" transform="translate(-148.11 -121.43)" fill="#e96683"/><path d="M177,553.9c8.59,6.35,45,9.22,45,9.22s-13.4-34-22-40.32a19.34,19.34,0,0,0-23,31.1Z" transform="translate(-148.11 -121.43)" fill="#e96683"/><path d="M236.85,403c-7.66,7.44-43.36,15.15-43.36,15.15s8.74-35.46,16.4-42.9a19.34,19.34,0,0,1,27,27.75Z" transform="translate(-148.11 -121.43)" fill="#e96683"/><path d="M257.1,492.51c-9.54,4.81-45.91,1.49-45.91,1.49s19-31.22,28.49-36a19.34,19.34,0,1,1,17.42,34.54Z" transform="translate(-148.11 -121.43)" fill="#e96683"/><path d="M264.85,582.17c-8.59,6.35-45,9.22-45,9.22s13.4-34,22-40.32a19.34,19.34,0,0,1,23,31.1Z" transform="translate(-148.11 -121.43)" fill="#e96683"/><path d="M527.26,421.22,471.53,414c-2.26-.29-4-1.15-3.94-1.9h0c.1-.75,2-1.1,4.31-.77l55.61,8.05c1.53.22,2.69.8,2.62,1.31h0C530.06,421.17,528.78,421.42,527.26,421.22Z" transform="translate(-148.11 -121.43)" fill="#e96683"/><path d="M527.61,422.17l-55.9-5.78c-2.27-.23-4.2.19-4.27.94h0c-.07.75,1.74,1.54,4,1.74l56,5c1.54.14,2.8-.16,2.85-.67h0C530.33,422.86,529.14,422.33,527.61,422.17Z" transform="translate(-148.11 -121.43)" fill="#e96683"/><path d="M611.47,464.22,667.19,457c2.26-.29,4-1.15,3.94-1.9h0c-.1-.75-2-1.1-4.31-.77l-55.61,8.05c-1.53.22-2.69.8-2.62,1.31h0C608.66,464.17,609.94,464.42,611.47,464.22Z" transform="translate(-148.11 -121.43)" fill="#e96683"/><path d="M611.11,465.17l55.9-5.78c2.27-.23,4.2.19,4.27.94h0c.07.75-1.74,1.54-4,1.74l-56,5c-1.54.14-2.8-.16-2.85-.67h0C608.39,465.86,609.58,465.33,611.11,465.17Z" transform="translate(-148.11 -121.43)" fill="#e96683"/><rect x="265.44" y="402.64" width="13.59" height="194.86" fill="#40414d"/><rect x="562.26" y="402.64" width="13.59" height="194.86" fill="#40414d"/><path d="M260.25,386.78h314a22,22,0,0,1,22,22v2.92a0,0,0,0,1,0,0h-358a0,0,0,0,1,0,0v-2.92A22,22,0,0,1,260.25,386.78Z" fill="#dfe6f5"/><path d="M259.25,386.78h314a22,22,0,0,1,22,22v2.92a0,0,0,0,1,0,0h-358a0,0,0,0,1,0,0v-2.92A22,22,0,0,1,259.25,386.78Z" opacity="0.1"/><path d="M260.25,382.24h314a22,22,0,0,1,22,22v2.92a0,0,0,0,1,0,0h-358a0,0,0,0,1,0,0v-2.92A22,22,0,0,1,260.25,382.24Z" fill="#dfe6f5"/><circle cx="417.25" cy="339.19" r="27.19" fill="#ffd77c" stroke="#ffab50" stroke-miterlimit="10"/><circle cx="417.25" cy="339.19" r="21.55" fill="#ffd77c" stroke="#ffab50" stroke-miterlimit="10"/><circle cx="417.25" cy="339.19" r="16.42" fill="#ffd77c" stroke="#ffab50" stroke-miterlimit="10"/><circle cx="417.25" cy="339.19" r="9.23" fill="#ffd77c" stroke="#ffab50" stroke-miterlimit="10"/><circle cx="401.39" cy="353.92" r="27.19" fill="#ffd77c" stroke="#ffab50" stroke-miterlimit="10"/><circle cx="401.39" cy="353.92" r="21.55" fill="#ffd77c" stroke="#ffab50" stroke-miterlimit="10"/><circle cx="401.39" cy="353.92" r="16.42" fill="#ffd77c" stroke="#ffab50" stroke-miterlimit="10"/><circle cx="401.39" cy="353.92" r="9.23" fill="#ffd77c" stroke="#ffab50" stroke-miterlimit="10"/><circle cx="433.11" cy="353.92" r="27.19" fill="#ffd77c" stroke="#ffab50" stroke-miterlimit="10"/><circle cx="433.11" cy="353.92" r="21.55" fill="#ffd77c" stroke="#ffab50" stroke-miterlimit="10"/><circle cx="433.11" cy="353.92" r="16.42" fill="#ffd77c" stroke="#ffab50" stroke-miterlimit="10"/><circle cx="433.11" cy="353.92" r="9.23" fill="#ffd77c" stroke="#ffab50" stroke-miterlimit="10"/><path d="M360.6,346H473.89a0,0,0,0,1,0,0v5.32a40,40,0,0,1-40,40H400.6a40,40,0,0,1-40-40V346A0,0,0,0,1,360.6,346Z" fill="#e96683"/><path d="M611.78,467.42a45.31,45.31,0,0,1-45.29,44.18H544A45.42,45.42,0,0,0,554,512.74h22.66A45.32,45.32,0,0,0,622,467.42Z" transform="translate(-148.11 -121.43)" opacity="0.1"/><rect x="563.1" y="532" width="13.59" height="294.56" transform="translate(1101.06 -12.05) rotate(90)" fill="#40414d"/><rect x="152.17" y="503.59" width="11.89" height="108.18" fill="#40414d"/><rect x="246.08" y="503.59" width="11.89" height="108.18" fill="#40414d"/><path d="M415.6,607.19c0,7.22-24.48,13.08-54.68,13.08s-53.49-5.85-53.49-13.08,23.29-13.08,53.49-13.08S415.6,600,415.6,607.19Z" transform="translate(-148.11 -121.43)" fill="#f6c6cd"/><path d="M142.66,485.75H267.48a0,0,0,0,1,0,0v10.9a10.5,10.5,0,0,1-10.5,10.5H160.66a18,18,0,0,1-18-18v-3.4A0,0,0,0,1,142.66,485.75Z" fill="#40414d"/><path d="M285.89,480h2.64a7,7,0,0,1,7,7V628.58a0,0,0,0,1,0,0h-4a12.66,12.66,0,0,1-12.66-12.66V487A7,7,0,0,1,285.89,480Z" transform="translate(-263.1 -44.6) rotate(-12.72)" fill="#40414d"/><rect x="820.55" y="626.94" width="11.89" height="108.18" transform="translate(1504.87 1240.63) rotate(-180)" fill="#40414d"/><rect x="726.64" y="626.94" width="11.89" height="108.18" transform="translate(1317.05 1240.63) rotate(-180)" fill="#40414d"/><path d="M717.13,609.11c0,7.22,24.48,13.08,54.68,13.08s53.49-5.85,53.49-13.08S802,596,771.81,596,717.13,601.89,717.13,609.11Z" transform="translate(-148.11 -121.43)" fill="#f6c6cd"/><path d="M735.13,609.11h96.32a10.5,10.5,0,0,1,10.5,10.5v10.9a0,0,0,0,1,0,0H717.13a0,0,0,0,1,0,0v-3.4A18,18,0,0,1,735.13,609.11Z" transform="translate(1410.96 1118.19) rotate(-180)" fill="#40414d"/><path d="M849.85,481.91h4a0,0,0,0,1,0,0V623.51a7,7,0,0,1-7,7h-2.64a7,7,0,0,1-7-7V494.57A12.66,12.66,0,0,1,849.85,481.91Z" transform="translate(1399.71 1163.49) rotate(-167.28)" fill="#40414d"/><path d="M829.17,567l3.51-1.11s-6-40.08-5.94-76c0-1,0-2.07,0-3.1.07-2.24.15-4.46.26-6.63.14-2.78.17-5.43.15-8,.33-34.59-13.3-49.2-13.3-49.2s-16-22.82-25.59-27.26c-.83-2.6-1.78-5.94-2.62-9.82.31-.21.61-.42.9-.64a129.45,129.45,0,0,0,11.35-9.47c4.92-4.61,9.64-10.23,9.38-16.57a12.16,12.16,0,0,0-.06-1.85c-.91-7.65-8.86-13.41-12.07-20.66-2.7-6.09-1.89-12.87-4.25-19.05s-10.6-11.93-16.82-8.68c-2.29,1.2-3.67,3.32-5.58,4.93-4.74,4-12.38,4.37-18.86,2.55s-8.4-9.24-17.46-9.26a10.53,10.53,0,0,1,2.29,1.09,14.42,14.42,0,0,0-2.29-.2,10,10,0,0,1,6.92,8.41,6.92,6.92,0,0,1-.08.72c-3.62,1.95-8.38.84-12.72.77s-9.28,2.12-8.85,5.67a3.43,3.43,0,0,0,0,1.22c.57,2.69,4.17,4.72,4.61,7.21,0,.07,0,.13,0,.2a74.76,74.76,0,0,1-25.65,7.48c-.29,0-.16.35.26.86l-.26,0c-1.63.17,9.77,9.18,11.07,9.77,4.76,2.16,10.45,3.75,15.49,5.41l.44.14a31.54,31.54,0,0,0-2.57,12.49c0,15.4,11.07,28.34,26.06,32,2.8,3.27,5.74,6.86,8.42,10.43h-.19S737.89,433.77,738.44,468a100.05,100.05,0,0,0,.68,12.84c-11.08-.63-34.89-3.55-53-16.81-24.43-17.87-51.68-12.51-46-1.79s34.77,19.65,39.46,20.55c.44.08,1.46.32,2.92.68-5.78,1.09-9.74,3-9.5,5.57.47,4.91,25.37,20.55,40.4,21.44,9.93.59,21.88,3.65,31.31,6.34.91,20.55-4.06,26.71-4.06,26.71s1.48.91,3.93,2.2l-1.05,3c-6.1,3.52-13.62,7.19-20.46,8.67a112.38,112.38,0,0,0-25.24,8.4l-33.83,16.35a19.59,19.59,0,0,0-11.2,15.39c-.74,6.93,1.35,15.59,12.67,22.46.7,5.63,4.14,12.2,13.17,18.22,17.5,11.64,63.49,46.51,69.75,51.27.12,8.51-1,25.58-11.5,28.24-13.16,3.34-2.57,16,8.07,15.5a13.94,13.94,0,0,0,7.91.58c11.28-2.68,52.62-17,55.44-38.42a20.53,20.53,0,0,0,.16-2.8,18.68,18.68,0,0,0-2.62-10.41,18.74,18.74,0,0,1,1.07,3c-3.42-7.8-11.75-12.7-18.23-15.46,0-.07,0-.15,0-.22-1-.39-2-.71-2.82-1a8.39,8.39,0,0,0-.13-1.73l-64.83-44.67s28.19-23.23,57.32-19.65S812,600.74,812,600.74s14.94-14.21,16.44-30.57l.94-.25S829.31,568.89,829.17,567Z" transform="translate(-148.11 -121.43)" fill="url(#a8b3c97d-e0d9-42bd-b729-a4d45980fc6b)"/><path d="M750,683.35s2.65,29.17-10.61,32.71-.88,17.68,9.72,15,49.51-16.8,52.16-38-26.52-28.29-26.52-28.29Z" transform="translate(-148.11 -121.43)" fill="#b8616e"/><path d="M750,683.35s2.65,29.17-10.61,32.71-.88,17.68,9.72,15,49.51-16.8,52.16-38-26.52-28.29-26.52-28.29Z" transform="translate(-148.11 -121.43)" opacity="0.05"/><path d="M755.33,684.23s2.65,29.17-10.61,32.71-.88,17.68,9.72,15,49.51-16.8,52.16-38-26.52-28.29-26.52-28.29Z" transform="translate(-148.11 -121.43)" fill="#b8616e"/><path d="M782.73,666.55,758,685.12s.11,1.26.18,3.27c9.34-2.56,29.69-9.36,30-20A47.92,47.92,0,0,0,782.73,666.55Z" transform="translate(-148.11 -121.43)" opacity="0.1"/><rect x="608.54" y="290.95" width="10.61" height="7.96" fill="#f8bdc5"/><path d="M757.1,541s-16.85,13.24-30.69,16.38a102.16,102.16,0,0,0-23.75,8.31l-31.83,16.18a19.34,19.34,0,0,0-10.54,15.23c-.91,9,2.71,20.84,24.31,27.88l68.07,56.58,21.22-17.68L701.4,608.2l55.7-34.48Z" transform="translate(-148.11 -121.43)" fill="#758ac8"/><path d="M757.1,541s-16.85,13.24-30.69,16.38a102.16,102.16,0,0,0-23.75,8.31l-31.83,16.18a19.34,19.34,0,0,0-10.54,15.23c-.91,9,2.71,20.84,24.31,27.88l68.07,56.58,21.22-17.68L701.4,608.2l55.7-34.48Z" transform="translate(-148.11 -121.43)" opacity="0.1"/><path d="M747.37,481.78s-32.71.88-55.7-16.8-48.62-12.38-43.32-1.77,32.71,19.45,37.13,20.33,68.07,18.57,68.07,18.57Z" transform="translate(-148.11 -121.43)" fill="#f8bdc5"/><path d="M747.37,481.78s-32.71.88-55.7-16.8-48.62-12.38-43.32-1.77,32.71,19.45,37.13,20.33,68.07,18.57,68.07,18.57Z" transform="translate(-148.11 -121.43)" opacity="0.05"/><path d="M750.91,533.06,740.3,564.89s-59.67,36.69-64.54,41.55c-3.78,3.78-8.84,18.57,8.84,30.94s66.3,51.28,66.3,51.28,37.13-8,34.48-23l-61-44.2s26.52-23,53.93-19.45,31.83-1.77,31.83-1.77S831.36,579,824.28,558.7,750.91,533.06,750.91,533.06Z" transform="translate(-148.11 -121.43)" fill="#758ac8"/><path d="M737.65,389s30.06,32.71,28.29,42.43,23.87-28.29,23.87-28.29-8-19.45-6.19-40.67Z" transform="translate(-148.11 -121.43)" fill="#f8bdc5"/><path d="M763.88,419a87.88,87.88,0,0,1,6.47-6.17,89.71,89.71,0,0,0,12.39-12.37c6.19-8,29.17,26.52,29.17,26.52s14.14,15.91,12.38,53.93,2.21,88.85,2.21,88.85l-5.35,1.49a30.63,30.63,0,0,1-27.1-3.85c-7.06-4.88-16-10-22.8-10.46-13.26-.88-25.2-8.4-25.2-8.4s5.75-13.7-3.09-57.91S756.65,415,756.65,415,758.43,424.62,763.88,419Z" transform="translate(-148.11 -121.43)" opacity="0.1"/><path d="M829.59,565.77l-5.3,1.77-3.15,1.05a30.62,30.62,0,0,1-27.1-3.85c-7.05-4.87-16-10-22.8-10.46C758,553.39,743,543.67,743,543.67s8.84-11.49,0-55.7,13.7-75.59,13.7-75.59,1.78,9.57,7.23,3.94a86.81,86.81,0,0,1,6.46-6.16,89.71,89.71,0,0,0,12.39-12.37c6.19-8,29.17,26.52,29.17,26.52s14.14,15.91,12.38,53.93c-.19,4-.27,8.12-.28,12.29C823.92,526.11,829.59,565.77,829.59,565.77Z" transform="translate(-148.11 -121.43)" fill="#5e52ad"/><path d="M779.2,479.13l.88,19.45s-46.86,2.65-56.58-7.07S750,520.1,758,522.45c7.51,2.21,26.9,4.16,37.07,4.36a15,15,0,0,0,14-8.49,14.15,14.15,0,0,0,1.1-8.25c-1.77-11.49,0-36.25,0-36.25Z" transform="translate(-148.11 -121.43)" opacity="0.1"/><path d="M779.2,477.36l.88,19.45s-46.86,2.65-56.58-7.07-44.89-7.57-44.2,0c.44,4.86,23.87,20.33,38,21.22S750,518.33,758,520.68c7.51,2.21,26.9,4.16,37.07,4.36a15,15,0,0,0,14-8.49,14.15,14.15,0,0,0,1.1-8.25c-1.77-11.49,0-36.25,0-36.25Z" transform="translate(-148.11 -121.43)" fill="#f8bdc5"/><path d="M789.81,420.78s-20.33,2.65-17.68,32.71,6.19,32.71,6.19,32.71,30.06-2.65,33.59-3.54,1.77-33.59,1.77-33.59S812.79,419.9,789.81,420.78Z" transform="translate(-148.11 -121.43)" opacity="0.1"/><path d="M789.81,419.9s-20.33,2.65-17.68,32.71,6.19,32.71,6.19,32.71,30.06-2.65,33.59-3.54,1.77-33.59,1.77-33.59S812.79,419,789.81,419.9Z" transform="translate(-148.11 -121.43)" fill="#5e52ad"/><path d="M782.29,381.44c-1.39-7,1.46-9.16,2.21-18.12l-46,26.52s5.27,5.74,11.26,13.11a32.77,32.77,0,0,0,8.19,1C770,404,776.59,391.06,782.29,381.44Z" transform="translate(-148.11 -121.43)" opacity="0.1"/><circle cx="608.98" cy="248.96" r="32.71" fill="#f8bdc5"/><path d="M765.34,360.46c-5,3.18-5.07,10.37-1.85,15.35s8.77,8.27,14.11,11.37c1.55.9,3.26,1.83,5,1.63a7.37,7.37,0,0,0,3.58-1.81,123.46,123.46,0,0,0,10.68-9.37c4.86-4.78,9.53-10.67,8.77-17.34-.86-7.57-8.34-13.27-11.36-20.44-2.54-6-1.78-12.73-4-18.86s-10-11.8-15.82-8.59c-2.15,1.18-3.45,3.29-5.25,4.88-4.46,3.94-11.65,4.33-17.75,2.53s-7.91-9.15-16.42-9.17c4.23,1.49,7.09,5.9,6.44,9.92-3.41,1.93-7.89.83-12,.76s-9,2.23-8.29,5.93c.62,3,4.95,5.23,4.31,8.23a67.76,67.76,0,0,1-24.14,7.4c-1.53.17,9.19,9.08,10.41,9.67,4.47,2.14,9.84,3.71,14.57,5.35C739.18,362.33,752.34,363.91,765.34,360.46Z" transform="translate(-148.11 -121.43)" opacity="0.1"/><path d="M765.34,359.57c-5,3.18-5.07,10.37-1.85,15.35s8.77,8.27,14.11,11.37c1.55.9,3.26,1.83,5,1.63a7.37,7.37,0,0,0,3.58-1.81,123.46,123.46,0,0,0,10.68-9.37c4.86-4.78,9.53-10.67,8.77-17.34-.86-7.57-8.34-13.27-11.36-20.44-2.54-6-1.78-12.73-4-18.86s-10-11.8-15.82-8.59c-2.15,1.18-3.45,3.29-5.25,4.88-4.46,3.94-11.65,4.33-17.75,2.53s-7.91-9.15-16.42-9.17c4.23,1.49,7.09,5.9,6.44,9.92-3.41,1.93-7.89.83-12,.76s-9,2.23-8.29,5.93c.62,3,4.95,5.23,4.31,8.23a67.76,67.76,0,0,1-24.14,7.4c-1.53.17,9.19,9.08,10.41,9.67,4.47,2.14,9.84,3.71,14.57,5.35C739.18,361.45,752.34,363,765.34,359.57Z" transform="translate(-148.11 -121.43)" fill="#916168"/><path d="M804.29,680.89a19.51,19.51,0,0,1,1.43,10.41c-2.65,21.22-41.55,35.36-52.16,38-5.59,1.4-11.68-1.87-14.23-5.8,1.64,4.62,8.7,9.17,15.12,7.57,10.61-2.65,49.51-16.8,52.16-38A19.41,19.41,0,0,0,804.29,680.89Z" transform="translate(-148.11 -121.43)" fill="#fff" opacity="0.1"/><path d="M523.34,705h0c-.79-1.78-4.89-5.25-24.66-6-13.54-.51-18.15-7.66-19.4-14.64,4.45-.58,7.93-1.38,9.07-2.49,0,0-.06-.32-.16-.89l.16-.12A93.7,93.7,0,0,1,487,665.62a58.64,58.64,0,0,1,1.38-13,38.34,38.34,0,0,0,.69-8.57c.11-17-5.86-46.88-5.86-46.88l-.82-24.83A17.25,17.25,0,0,0,473,557.44a14.13,14.13,0,0,0-6.35-1.58s-31.34-4.94-59.55-7.63c-2-1.61-9.05-5.95-25.21-3.46l-9.3-27.22a7.73,7.73,0,0,1-.16-1c.33-3.46,2.64-8.67,13.41-9l2.25,2s.4-.79,1.07-2c13.36-.15,86.14-.89,89.89,0,4.13,1,40.31-7.06,41.35-8.06,14.06-13.71-41.35-7.06-41.35-7.06-5.45.89-23.06-.17-41.1-1.64,8.93-13.39,17.33-58.84,17.33-58.84s32-16.13,22.74-25.2-37.21,20.16-37.21,20.16-11.37,33.27-16.54,43.35c-2,4-4.59,4.82-6.9,4.36,1.05-.84,1.73-1.34,1.73-1.34s-22.74-18.15-24.81-25.2a16.84,16.84,0,0,0-1.52-3.31c-1.09-6.39-3-12.68-7.66-16.87a17.33,17.33,0,0,0-2.58-2.27c-1.26-.9-2.69-1.68-3.88-2.66l0,0c.67-3.08,1.45-6.28,2.26-9.38,16.88-2,30-16,30-33a32.55,32.55,0,0,0-.91-7.61,14.66,14.66,0,0,0,13-6.26c3.41-5.08,3.3-12,.44-17.36a21.49,21.49,0,0,0-4.58-5.78,27.09,27.09,0,0,0-10.5-6.56c-3.43-1.19-7.22-1.9-9.94-4.23a44.09,44.09,0,0,1-3.31-5,25.59,25.59,0,0,0-4-4.66c-5-5.15-12.06-8.32-19.25-9.72-8.76-1.71-17.81-1.1-26.72-.49-3.33.23-7.24.82-8.74,3.72-1.13,2.18-.39,4.79-.54,7.22-.47,7.73-9.31,12-17,13.87S302,341.22,298.29,348c-3.37,6.12-1,13.54.08,20.41A49.93,49.93,0,0,1,290.84,403c-3.38,5.17-7.74,9.77-10.41,15.32a29.21,29.21,0,0,0-1.94,19.86c.5,1.94,1.22,3.92.86,5.9a10.29,10.29,0,0,1-2.34,4.39A53,53,0,0,1,239.31,468a10.8,10.8,0,0,0,3.44,5.19,24.85,24.85,0,0,0,7.14,4.93,107.81,107.81,0,0,0,21.9,8.15c5.1,1.29,10.43,2.21,15.62,1.33s10.25-3.85,12.38-8.55c1.24-2.72,1.42-5.8,2.52-8.57,2.19-5.54,7.62-9.13,11.29-13.88a347.08,347.08,0,0,0-1.75,36.84c0,3.85,0,7.32,0,10.54,0,13.89-1,23.47-9.61,40.82a10.36,10.36,0,0,0-1.29,6,6.58,6.58,0,0,0,2.25,6.11,59.24,59.24,0,0,0-.87,10.48c-.12,12.64,4.15,29.61,26.79,33.91l40.31-2s56.85-11.09,72.35-3a5.72,5.72,0,0,1,4.53,5.58,12.83,12.83,0,0,1-.39,2.49,39.15,39.15,0,0,0-.49,7.93c-.07,17,3.59,55.58,3.59,55.58v16.36c-2.58,3.88-5.76,9.62-5.35,13.85,0,.09,0,.19,0,.28s0,.25.06.37,0,.22.07.33.06.21.09.32.08.24.13.35.07.18.11.27.13.26.2.38l.12.21a4.84,4.84,0,0,0,.4.55c5.17,6,31,17.61,39.28,17.14,8.79-.5,38.24,1,39.28-12.1A1.59,1.59,0,0,0,523.34,705Z" transform="translate(-148.11 -121.43)" fill="url(#b66fe85f-ad74-4eee-9789-144feaee2a7f)"/><path d="M449.86,679.68s-12,15-7,21,30,17.47,38,17c8.5-.5,37,1,38-12,0,0,2-6-24-7s-18-28-18-28Z" transform="translate(-148.11 -121.43)" fill="#594c76"/><path d="M306.86,553.68s-12,41,24,48l39-2s55-11,70-3c0,0,6,1,4,9s3,62,3,62v18s34,0,38-4c0,0-3-16,0-29s-5-54-5-54L479.07,574a17.16,17.16,0,0,0-9.06-14.8,13.4,13.4,0,0,0-6.14-1.56s-68-11-92-9S306.86,553.68,306.86,553.68Z" transform="translate(-148.11 -121.43)" opacity="0.1"/><path d="M306.86,552.68s-12,41,24,48l39-2s55-11,70-3c0,0,6,1,4,9s3,62,3,62v18s34,0,38-4c0,0-3-16,0-29s-5-54-5-54L479.07,573a17.16,17.16,0,0,0-9.06-14.8,13.4,13.4,0,0,0-6.14-1.56s-68-11-92-9S306.86,552.68,306.86,552.68Z" transform="translate(-148.11 -121.43)" fill="#8b9cd1"/><path d="M409.86,471.68s8,10,13,0,16-43,16-43,27-29,36-20-22,25-22,25-11,61-21,62-25,0-25,0l-5-11Z" transform="translate(-148.11 -121.43)" fill="#f8bdc5"/><path d="M409.86,471.68s8,10,13,0,16-43,16-43,27-29,36-20-22,25-22,25-11,61-21,62-25,0-25,0l-5-11Z" transform="translate(-148.11 -121.43)" opacity="0.05"/><path d="M373.86,421.68s18,21,20,28,24,25,24,25-16,12-13,18-21-20-21-20l-28-41Z" transform="translate(-148.11 -121.43)" fill="#eb6475"/><path d="M373.86,421.68s18,21,20,28,24,25,24,25-16,12-13,18-21-20-21-20l-28-41Z" transform="translate(-148.11 -121.43)" opacity="0.1"/><path d="M385.86,397.68s-9,29-9,40-38-3-37-9,22-28,23-37S385.86,397.68,385.86,397.68Z" transform="translate(-148.11 -121.43)" fill="#f8bdc5"/><path d="M355.86,417.68s-35-9-40,42,4,57-11,88,102,4,102,4-6-7-25-4l-9-27s-3-12,14-12,9-35,9-35-9-30-14-33S367.86,419.68,355.86,417.68Z" transform="translate(-148.11 -121.43)" opacity="0.1"/><path d="M355.86,415.68s-35-9-40,42,4,57-11,88,102,4,102,4-6-7-25-4l-9-27s-3-12,14-12,9-35,9-35-9-30-14-33S367.86,417.68,355.86,415.68Z" transform="translate(-148.11 -121.43)" fill="#eb6475"/><path d="M390.86,487.68s73,8,85,6c0,0,53.6-6.6,40,7-1,1-36,9-40,8s-89,0-89,0l-1-10Z" transform="translate(-148.11 -121.43)" fill="#f8bdc5"/><path d="M334.86,462.68l53,48s10-20,13-20-36-59-36-59-10-12-16-6S324.86,427.68,334.86,462.68Z" transform="translate(-148.11 -121.43)" opacity="0.1"/><path d="M333.86,460.68l53,48s10-20,13-20-36-59-36-59-10-12-16-6S323.86,425.68,333.86,460.68Z" transform="translate(-148.11 -121.43)" fill="#eb6475"/><circle cx="228.75" cy="261.25" r="33" fill="#f8bdc5"/><path d="M405.76,374.39c5.6,2.21,12.46-.44,15.76-5.47s3.2-11.88.42-17.22-7.92-9.22-13.59-11.24c-3.44-1.22-7.27-1.92-9.91-4.44-1.67-1.59-2.66-3.74-3.91-5.68-4.67-7.28-13-11.58-21.47-13.27s-17.23-1.09-25.85-.49c-3.22.23-7,.81-8.46,3.69-1.09,2.16-.38,4.75-.52,7.16-.45,7.67-9,11.92-16.47,13.76s-16.13,3.57-19.77,10.33c-3.26,6.07-.93,13.43.08,20.25A50.54,50.54,0,0,1,294.79,406c-3.27,5.13-7.48,9.69-10.07,15.2a29.64,29.64,0,0,0-1.88,19.7c.49,1.93,1.18,3.89.84,5.85a10.29,10.29,0,0,1-2.26,4.35,50.88,50.88,0,0,1-36.47,19.42c1.14,4.29,5.29,7,9.24,9a102.69,102.69,0,0,0,21.18,8.08c4.93,1.28,10.09,2.19,15.11,1.32s9.91-3.82,12-8.48c1.2-2.7,1.38-5.75,2.44-8.51,2.39-6.19,8.76-9.93,12.18-15.62,3.27-5.44,4.54-6.08,5.37-12.36s2.66-13.06,7.82-16.75c5.4-3.87,13-3.13,19-.16s9.71,1.81,14.72,6.17a122,122,0,0,0,29.21,18.82c-1-8.72-2.61-18.45-9.69-23.64-2-1.49-4.53-2.63-5.59-4.91-1.69-3.63,1.2-8.06-.11-11.85s-6.29-5.19-8.5-8.63c-1.88-2.92-1.37-6.89.39-9.89s4.54-5.22,7.31-7.32q3.69-2.79,7.48-5.45a26.72,26.72,0,0,0,6.08-5.3c1-1.37,1.66-4.37,3.05-5.34C397.14,367.28,402.52,373.12,405.76,374.39Z" transform="translate(-148.11 -121.43)" opacity="0.1"/><path d="M404.76,373.39c5.6,2.21,12.46-.44,15.76-5.47s3.2-11.88.42-17.22-7.92-9.22-13.59-11.24c-3.44-1.22-7.27-1.92-9.91-4.44-1.67-1.59-2.66-3.74-3.91-5.68-4.67-7.28-13-11.58-21.47-13.27s-17.23-1.09-25.85-.49c-3.22.23-7,.81-8.46,3.69-1.09,2.16-.38,4.75-.52,7.16-.45,7.67-9,11.92-16.47,13.76s-16.13,3.57-19.77,10.33c-3.26,6.07-.93,13.43.08,20.25A50.54,50.54,0,0,1,293.79,405c-3.27,5.13-7.48,9.69-10.07,15.2a29.64,29.64,0,0,0-1.88,19.7c.49,1.93,1.18,3.89.84,5.85a10.29,10.29,0,0,1-2.26,4.35,50.88,50.88,0,0,1-36.47,19.42c1.14,4.29,5.29,7,9.24,9a102.69,102.69,0,0,0,21.18,8.08c4.93,1.28,10.09,2.19,15.11,1.32s9.91-3.82,12-8.48c1.2-2.7,1.38-5.75,2.44-8.51,2.39-6.19,8.76-9.93,12.18-15.62,3.27-5.44,4.54-6.08,5.37-12.36s2.66-13.06,7.82-16.75c5.4-3.87,13-3.13,19-.16s9.71,1.81,14.72,6.17a122,122,0,0,0,29.21,18.82c-1-8.72-2.61-18.45-9.69-23.64-2-1.49-4.53-2.63-5.59-4.91-1.69-3.63,1.2-8.06-.11-11.85s-6.29-5.19-8.5-8.63c-1.88-2.92-1.37-6.89.39-9.89s4.54-5.22,7.31-7.32q3.69-2.79,7.48-5.45a26.72,26.72,0,0,0,6.08-5.3c1-1.37,1.66-4.37,3.05-5.34C396.14,366.28,401.52,372.12,404.76,373.39Z" transform="translate(-148.11 -121.43)" fill="#916168"/><g opacity="0.1"><path d="M475.72,678.56a34.56,34.56,0,0,1,1.14-7.88l-.5.17A34.82,34.82,0,0,0,475.72,678.56Z" transform="translate(-148.11 -121.43)" fill="#fff"/><path d="M480.86,715.68c-8,.47-33-11-38-17a5.33,5.33,0,0,1-1.16-2.84,6.28,6.28,0,0,0,1.16,4.84c5,6,30,17.47,38,17,8.5-.5,37,1,38-12a1.62,1.62,0,0,0-.14-1.06C516.43,716.6,489.15,715.19,480.86,715.68Z" transform="translate(-148.11 -121.43)" fill="#fff"/></g><rect x="372.25" y="295.75" width="1" height="41" fill="#ffd77c" stroke="#ffab50" stroke-miterlimit="10" stroke-width="0.25"/><rect x="373.25" y="295.75" width="1" height="41" fill="#ffd77c" stroke="#ffab50" stroke-miterlimit="10" stroke-width="0.25"/><rect x="374.25" y="295.75" width="1" height="41" fill="#ffd77c" stroke="#ffab50" stroke-miterlimit="10" stroke-width="0.25"/><rect x="375.25" y="295.75" width="1" height="41" fill="#ffd77c" stroke="#ffab50" stroke-miterlimit="10" stroke-width="0.25"/><rect x="376.25" y="295.75" width="1" height="41" fill="#ffd77c" stroke="#ffab50" stroke-miterlimit="10" stroke-width="0.25"/><rect x="377.25" y="295.75" width="1" height="41" fill="#ffd77c" stroke="#ffab50" stroke-miterlimit="10" stroke-width="0.25"/><rect x="378.25" y="295.75" width="1" height="41" fill="#ffd77c" stroke="#ffab50" stroke-miterlimit="10" stroke-width="0.25"/>
</symbol></svg>