<?xml version="1.0" encoding="utf-8"?>
<svg xmlns="http://www.w3.org/2000/svg">
<symbol id="african-hot-pot" viewBox="0 0 452.453 452.453">
<g>
	<path d="M446.226,242.698c0-20.022-8.794-39.826-25.431-57.27c-14.528-15.233-35.109-28.746-59.779-39.318l71.57-91.523
		c3.114-3.982,4.231-9.088,3.064-14.007c-1.167-4.919-4.459-8.979-9.031-11.138c-7.207-3.405-15.823-1.182-20.481,5.289
		l-72.927,101.243c-4.011-1.235-8.083-2.401-12.197-3.483l61.405-107.76c2.504-4.393,2.867-9.606,0.998-14.304
		c-1.869-4.697-5.715-8.236-10.552-9.708c-7.631-2.324-15.827,1.131-19.498,8.207l-60.889,117.384
		c-21.377-3.71-43.637-5.613-66.252-5.613c-58.247,0-113.087,12.387-154.418,34.879c-42.291,23.016-65.582,53.956-65.582,87.121
		c0,0.001,0,0.003,0,0.004v0.001c0,56.072,22.915,108.775,64.524,148.401c41.542,39.562,96.758,61.349,155.476,61.349
		s113.934-21.788,155.476-61.349c41.609-39.625,64.524-92.329,64.524-148.401v-0.001C446.226,242.7,446.226,242.699,446.226,242.698
		z M436.226,242.698c0,1.72-0.079,3.441-0.229,5.16c-16.52-29.183-52.076-53.673-100.63-68.948l19.267-24.638
		C405.797,175.528,436.226,208.403,436.226,242.698z M414.253,40.576c1.841-2.557,5.244-3.438,8.099-2.091
		c1.808,0.854,3.108,2.459,3.57,4.404c0.461,1.945,0.02,3.963-1.212,5.538L306.713,199.319c-2.091-0.249-4.211-0.458-6.378-0.596
		l38.836-53.915c0.014-0.019,0.027-0.038,0.041-0.057L414.253,40.576z M327.031,144.553l-19.432,26.978
		c-2.598-0.57-5.235-1.115-7.899-1.634l16.182-28.398C319.632,142.45,323.356,143.469,327.031,144.553z M362.245,13.531
		c1.451-2.798,4.694-4.161,7.709-3.245c1.913,0.582,3.434,1.981,4.172,3.838c0.739,1.857,0.596,3.919-0.394,5.656l-94.85,166.452
		c-1.367,2.399-0.531,5.453,1.868,6.82c2.4,1.369,5.453,0.53,6.819-1.869l6.897-12.104c2.268,0.419,4.517,0.86,6.745,1.318
		c0,0-12.892,17.963-13.015,18.214c-37.039,1.718-58.747,21.851-59.744,22.794c-2.005,1.899-2.091,5.064-0.191,7.068
		c1.899,2.005,5.063,2.09,7.068,0.191c0.236-0.225,24.222-22.474,64.25-19.973c40.225,2.514,67.267,27.714,67.53,27.963
		c0.968,0.922,2.209,1.379,3.447,1.379c1.32,0,2.639-0.52,3.622-1.552c1.904-2,1.827-5.165-0.173-7.069
		c-1.028-0.979-22.272-20.855-56.073-28.212l10.837-13.857c53.539,16.135,91.99,44.508,103.643,76.502
		c-8.977,24.639-33.684,47.254-69.826,63.824c-38.014,17.428-86.441,27.026-136.362,27.026c-56.608,0-109.751-11.954-149.638-33.659
		c-29.398-15.998-48.813-35.785-56.56-57.15c10.613-29.23,43.278-55.241,89.482-71.875c1.804-0.649,3.628-1.284,5.472-1.905
		c0,0-3.861,8.428-2.23,12.813c1.63,4.386,5.358,7.463,9.973,8.232l2.318,0.387c11.654,1.942,23.554,2.927,35.367,2.927
		c26.233,0,51.968-4.729,76.487-14.056c6.711-2.552,10.972-8.597,11.12-15.775c0.088-4.265-1.3-8.183-3.818-11.259
		c7.73,0.353,15.397,0.939,22.958,1.745l-6.371,12.282c-1.271,2.451-0.315,5.469,2.136,6.741c0.736,0.382,1.523,0.563,2.299,0.563
		c1.808,0,3.553-0.983,4.442-2.699l9.671-18.643c0.001-0.002,0.002-0.004,0.003-0.006L362.245,13.531z M155.291,166.511
		c0.892,1.712,2.635,2.692,4.439,2.692c0.778,0,1.567-0.182,2.305-0.566l22.873-11.906l4.141,1.775l-42.355,24.885
		c-2.381,1.399-3.177,4.463-1.777,6.844c0.931,1.585,2.601,2.468,4.315,2.468c0.86,0,1.732-0.223,2.528-0.69l48.704-28.615
		l7.932,3.399l-34.507,17.951c-2.449,1.274-3.402,4.293-2.128,6.743c0.891,1.712,2.634,2.693,4.439,2.693
		c0.777,0,1.566-0.182,2.304-0.565c0,0,41.266-21.545,41.571-21.817l6.725,2.882l-18.404,9.58c-2.449,1.275-3.401,4.294-2.127,6.744
		c0.892,1.712,2.635,2.692,4.439,2.692c0.778,0,1.567-0.182,2.305-0.566l24.056-12.522c0.883,1.565,0.966,3.152,0.953,3.818
		c-0.023,1.148-0.432,5.02-4.677,6.635c-23.38,8.893-47.918,13.402-72.933,13.402c-11.265,0-22.61-0.939-33.723-2.791l-2.318-0.387
		c-1.497-0.249-2.068-1.378-2.244-1.852s-0.48-1.702,0.489-2.868l36.896-44.346c1.563-1.878,3.861-2.956,6.306-2.956
		c1.113,0,2.198,0.223,3.226,0.664l3.986,1.708l-15.612,8.127C154.968,161.042,154.016,164.062,155.291,166.511z M76.589,164.361
		c39.89-21.708,93.031-33.663,149.638-33.663c20.942,0,41.565,1.667,61.42,4.929l-15.556,29.99
		c-22.694-2.959-37.871-2.584-47.231-2.643l-51.876-22.233c-2.279-0.977-4.69-1.472-7.165-1.472c-5.424,0-10.524,2.391-13.993,6.56
		l-25.159,30.24c-29.183,8.173-55.103,20.045-75.027,34.398c-15.549,11.201-27.48,23.953-35.179,37.46
		c-0.152-1.737-0.233-3.48-0.233-5.229C16.226,213.365,37.664,185.544,76.589,164.361z M226.226,442.453
		c-99.404,0-182.895-66.037-204.54-154.411c11.111,15.55,28.014,29.75,50.122,41.781c41.329,22.49,96.169,34.875,154.418,34.875
		c91.644,0,172.02-31.207,204.584-76.829C409.233,376.33,325.695,442.453,226.226,442.453z"/>
	<path d="M110.726,292.703c34.486,0,61.5-14.495,61.5-33s-27.014-33-61.5-33c-38.75,0-52.5,17.777-52.5,33
		C58.226,274.926,71.976,292.703,110.726,292.703z M110.726,236.703c30.35,0,51.5,12.121,51.5,23
		c0,5.399-5.019,10.982-13.769,15.319c-9.995,4.953-23.395,7.681-37.731,7.681c-25.817,0-42.5-9.028-42.5-23
		C68.226,245.73,84.909,236.703,110.726,236.703z"/>
	<path d="M100.704,276.703c13.879,0,24.75-7.373,24.75-16.785c0-9.412-10.871-16.784-24.75-16.784s-24.75,7.373-24.75,16.784
		C75.954,269.33,86.825,276.703,100.704,276.703z M100.704,253.134c9.004,0,14.75,4.018,14.75,6.784s-5.746,6.785-14.75,6.785
		s-14.75-4.019-14.75-6.785S91.7,253.134,100.704,253.134z"/>
	<path d="M197.603,271.708c-0.906,6.795,3.645,12.105,13.527,15.783c7.071,2.631,16.484,4.43,25.588,6.169
		c10.423,1.991,27.867,5.324,29.473,9.299c0.133,0.329-0.141,1.238-1.05,2.526c-10.361,14.679-68.797,12.249-103.198,7.269
		c-2.739-0.399-5.27,1.499-5.665,4.231c-0.396,2.733,1.498,5.269,4.231,5.665c0.951,0.138,23.595,3.384,48.617,3.884
		c2.196,0.044,4.335,0.066,6.421,0.066c31.559,0,50.485-5.038,57.764-15.348c3.687-5.223,3.205-9.428,2.152-12.037
		c-3.646-9.031-19.042-11.972-36.869-15.378c-8.697-1.662-17.692-3.38-23.977-5.719c-4.642-1.728-7.297-3.63-7.103-5.089
		c0.194-1.454,1.263-2.917,3.177-4.348c14.332-10.715,64.763-12.239,91.766-8.039c2.738,0.424,5.285-1.444,5.709-4.172
		c0.425-2.729-1.443-5.285-4.172-5.709c-25.559-3.975-80.596-4.064-99.291,9.911C200.555,263.774,198.166,267.487,197.603,271.708z"/>
	<path d="M294.351,292.493c-4.955-7.297-16.742-12.929-28.974-17.044c17.831-2.324,31.908,0.431,32.177,0.485
		c2.7,0.558,5.345-1.186,5.902-3.889c0.557-2.705-1.185-5.349-3.889-5.906c-1.102-0.228-26.854-5.348-54.635,3.662
		c-7.814-1.772-13.867-2.766-15.6-3.038c-2.718-0.427-5.286,1.437-5.714,4.165c-0.428,2.728,1.437,5.287,4.165,5.714
		c4.595,0.721,9.997,1.768,15.637,3.08c0.336,0.118,3.791,0.91,5.177,1.265c16.134,4.135,32.816,10.255,37.48,17.123
		c1.197,1.763,1.129,2.97,0.937,3.824c-2.309,10.225-8.243,17.879-18.142,23.401c-12.47,6.955-31.144,10.322-55.587,10.034
		c-0.021,0-0.041,0-0.062,0c-2.733,0-4.965,2.199-4.999,4.939c-0.033,2.761,2.178,5.027,4.939,5.061
		c1.02,0.013,2.025,0.019,3.027,0.019c47.288-0.001,74.396-13.872,80.576-41.25C297.666,300.168,296.83,296.142,294.351,292.493z"/>
	<path d="M256.951,232.395c0.412-0.151,41.845-14.869,83.214,7.697c0.761,0.415,1.581,0.611,2.39,0.611
		c1.771,0,3.486-0.943,4.395-2.607c1.322-2.424,0.429-5.461-1.995-6.784c-45.472-24.802-89.604-8.986-91.459-8.301
		c-2.588,0.956-3.909,3.825-2.958,6.414C251.487,232.015,254.358,233.344,256.951,232.395z"/>
	<path d="M307.454,286.672c0.891,1.715,2.635,2.698,4.442,2.698c0.775,0,1.563-0.181,2.299-0.563
		c0.35-0.181,35.347-17.991,69.335-5.734c2.597,0.937,5.463-0.41,6.399-3.007c0.938-2.598-0.409-5.463-3.007-6.4
		c-38.063-13.724-75.747,5.443-77.333,6.266C307.138,281.203,306.182,284.221,307.454,286.672z"/>
	<path d="M337.348,298.701l27.333-0.667c2.761-0.067,4.943-2.36,4.876-5.121c-0.065-2.719-2.291-4.878-4.996-4.878
		c-0.041,0-0.082,0-0.124,0.001l-27.333,0.667c-2.761,0.067-4.943,2.36-4.876,5.121c0.065,2.719,2.291,4.878,4.996,4.878
		C337.265,298.703,337.306,298.702,337.348,298.701z"/>
	<path d="M193.621,301.666c2.759,0.334,5.235-1.618,5.568-4.358c0.335-2.741-1.616-5.234-4.357-5.569
		c-25.805-3.147-38.108,2.486-51.13,8.451c-8.531,3.908-17.353,7.949-31.23,10.069c-32.058,4.903-46.357-17.177-46.995-18.191
		c-1.451-2.342-4.525-3.07-6.87-1.625c-2.353,1.447-3.085,4.527-1.638,6.879c0.653,1.063,14.953,23.657,46.321,23.657
		c3.364,0,6.931-0.261,10.691-0.835c15.261-2.332,25.155-6.864,33.886-10.864C160.577,303.459,170.616,298.859,193.621,301.666z"/>
	<path d="M381.278,300.082c-7.321,6.973-29.513,6.557-45.717,6.253c-3.635-0.068-7.069-0.133-10.335-0.133
		c-23.106,0-33.696,25.539-34.136,26.626c-1.035,2.56,0.201,5.475,2.762,6.51c0.614,0.248,1.248,0.366,1.872,0.366
		c1.978,0,3.851-1.182,4.638-3.127c0.082-0.204,8.426-20.374,24.864-20.374c3.172,0,6.561,0.063,10.147,0.131
		c19.922,0.374,42.503,0.798,52.801-9.01c2-1.904,2.077-5.069,0.173-7.069C386.443,298.256,383.278,298.177,381.278,300.082z"/>
	<path d="M185.82,247.294h23.998c2.762,0,5-2.239,5-5s-2.238-5-5-5H185.82c-8.571,0-15.982-10.037-18.115-13.904
		c-1.325-2.417-4.355-3.308-6.778-1.985c-2.424,1.322-3.317,4.359-1.995,6.784C159.357,228.969,169.539,247.294,185.82,247.294z"/>
</g>
<g>
</g>
<g>
</g>
<g>
</g>
<g>
</g>
<g>
</g>
<g>
</g>
<g>
</g>
<g>
</g>
<g>
</g>
<g>
</g>
<g>
</g>
<g>
</g>
<g>
</g>
<g>
</g>
<g>
</g>

</symbol>
<symbol id="bites" viewBox="0 0 33 33">
<g>
	<g>
		<path d="M8.822,29.588C3.958,29.588,0,25.631,0,20.766s3.958-8.821,8.822-8.821c4.86,0,14.571,3.813,14.571,8.821
			S13.682,29.588,8.822,29.588z M8.822,12.945C4.509,12.945,1,16.454,1,20.766s3.509,7.821,7.822,7.821
			c4.469,0,13.571-3.62,13.571-7.821S13.291,12.945,8.822,12.945z"/>
		<path d="M29.701,26.297c-1.778,0-3.232-1.414-3.297-3.177h-4.003c-0.276,0-0.5-0.224-0.5-0.5s0.224-0.5,0.5-0.5h4.539
			c0.145,0,0.282,0.063,0.377,0.171c0.095,0.109,0.138,0.254,0.119,0.396c-0.021,0.145-0.034,0.226-0.034,0.311
			c0,1.268,1.031,2.299,2.299,2.299c1.268,0,2.299-1.031,2.299-2.299c0-0.723-0.337-1.39-0.925-1.832
			c-0.126-0.094-0.2-0.242-0.2-0.399s0.074-0.306,0.2-0.399C31.663,19.924,32,19.257,32,18.536c0-1.269-1.031-2.3-2.299-2.3
			c-1.268,0-2.299,1.031-2.299,2.3c0,0.085,0.013,0.168,0.025,0.25c0.021,0.143-0.018,0.316-0.113,0.426
			c-0.095,0.11-0.229,0.201-0.374,0.201h-4.539c-0.276,0-0.5-0.224-0.5-0.5s0.224-0.5,0.5-0.5h4.003
			c0.065-1.763,1.519-3.177,3.297-3.177c1.819,0,3.299,1.48,3.299,3.3c0,0.839-0.315,1.626-0.879,2.23
			C32.685,21.371,33,22.158,33,22.998C33,24.817,31.52,26.297,29.701,26.297z"/>
		<path d="M3.526,19.4c-0.046,0-0.092-0.006-0.139-0.02c-0.266-0.077-0.418-0.354-0.342-0.619c0.724-2.505,2.629-3.091,2.71-3.114
			c0.27-0.075,0.543,0.074,0.621,0.339c0.078,0.264-0.072,0.54-0.335,0.619c-0.067,0.021-1.471,0.483-2.034,2.434
			C3.943,19.257,3.743,19.4,3.526,19.4z"/>
	</g>
	<g>
		<path d="M14.589,9.915c-0.139,0-0.278-0.058-0.377-0.172c-0.846-0.971-0.846-2.436,0-3.407c0.52-0.597,0.52-1.497,0-2.094
			c-0.182-0.208-0.16-0.523,0.048-0.705c0.207-0.183,0.524-0.162,0.706,0.049c0.846,0.971,0.846,2.436,0,3.406
			c-0.52,0.598-0.52,1.498,0,2.095c0.182,0.208,0.16,0.523-0.048,0.705C14.823,9.875,14.706,9.915,14.589,9.915z"/>
		<path d="M10.069,9.915c-0.139,0-0.278-0.058-0.377-0.172c-0.846-0.971-0.846-2.436,0-3.407c0.52-0.597,0.52-1.497,0-2.094
			c-0.182-0.208-0.16-0.523,0.048-0.705c0.207-0.183,0.524-0.162,0.706,0.049c0.846,0.971,0.846,2.436,0,3.406
			c-0.52,0.598-0.52,1.498,0,2.095c0.182,0.208,0.16,0.523-0.048,0.705C10.303,9.875,10.186,9.915,10.069,9.915z"/>
		<path d="M5.549,9.915c-0.139,0-0.278-0.058-0.377-0.172c-0.846-0.971-0.846-2.436,0-3.407c0.52-0.597,0.52-1.497,0-2.094
			c-0.182-0.208-0.16-0.523,0.048-0.705c0.207-0.183,0.523-0.162,0.706,0.049c0.846,0.971,0.846,2.436,0,3.406
			c-0.52,0.598-0.52,1.498,0,2.095c0.182,0.208,0.16,0.523-0.048,0.705C5.783,9.875,5.666,9.915,5.549,9.915z"/>
	</g>
</g>
<g>
</g>
<g>
</g>
<g>
</g>
<g>
</g>
<g>
</g>
<g>
</g>
<g>
</g>
<g>
</g>
<g>
</g>
<g>
</g>
<g>
</g>
<g>
</g>
<g>
</g>
<g>
</g>
<g>
</g>

</symbol>
<symbol id="bottle-drinks" viewBox="0 0 512 512">
<g>
	<g>
		<path d="M367.859,339.663c0-11.391-5.325-21.54-13.68-28.055c8.354-6.515,13.774-16.664,13.774-28.055
			c0-11.993-6.207-22.611-15.328-29.058c9.183-7.254,14.858-18.476,14.858-31.06V148.74l-71.909-93.632h15.8V0H200.156v55.108
			h16.801l-72.91,93.632v74.697c0,12.584,6.161,23.805,15.344,31.06c-9.121,6.447-14.968,17.064-14.968,29.058
			c0,11.391,5.451,21.54,13.805,28.055c-8.354,6.515-13.711,16.664-13.711,28.055c0,11.993,5.737,22.611,14.858,29.058
			c-9.183,7.254-15.328,18.476-15.328,31.06v64.125c0,21.823,18.256,40.078,40.078,40.078h40.078v-0.659
			c6.671,5.12,15.007,8.675,24.047,8.675h16.031c9.04,0,17.376-3.554,24.047-8.675v0.659h40.078
			c21.823,0,39.076-18.256,39.076-40.078v-64.125c0-12.584-5.66-23.805-14.843-31.06
			C361.761,362.275,367.859,351.657,367.859,339.663z M215.186,40.078V15.029h81.159v25.049H215.186z M235.919,55.108h40.692
			l68.596,89.174H167.323L235.919,55.108z M332.415,319.624c11.326,0,20.54,9.214,20.54,20.54s-9.214,20.54-20.54,20.54h-20.039
			v15.029h16.031c13.536,0,24.047,10.511,24.047,24.047v64.125c0,13.536-10.51,25.049-24.047,25.049h-28.18
			c2.325-6.012,3.632-11.134,3.632-17.033H288.83c0,13.536-11.012,25.049-24.548,25.049H248.25
			c-13.535,0-24.548-11.512-24.548-25.049h-15.029c0,5.9,1.307,11.022,3.632,17.033h-28.18c-13.535,0-25.049-11.512-25.049-25.049
			v-64.125c0-13.536,11.513-24.047,25.049-24.047h80.157v-15.029h-84.164c-11.326,0-20.54-9.214-20.54-20.54
			s9.214-20.54,20.54-20.54h84.164v-15.029h-84.164c-11.326,0-20.54-9.214-20.54-20.54s9.214-20.54,20.54-20.54h84.164v-15.029
			h-80.157c-13.535,0-25.049-11.512-25.049-25.049v-64.125h193.378v64.125c0,13.536-10.51,25.049-24.047,25.049h-16.031v15.029
			h20.039c11.326,0,20.54,9.214,20.54,20.54s-9.214,20.54-20.54,20.54h-20.039v15.029H332.415z"/>
	</g>
</g>
<g>
	<g>
		<rect x="200.16" y="112.219" width="16.031" height="15.029"/>
	</g>
</g>
<g>
	<g>
		<rect x="216.192" y="96.188" width="16.031" height="15.029"/>
	</g>
</g>
<g>
	<g>
		<rect x="280.317" y="304.595" width="16.031" height="15.029"/>
	</g>
</g>
<g>
	<g>
		<rect x="280.317" y="248.485" width="16.031" height="15.029"/>
	</g>
</g>
<g>
	<g>
		<rect x="280.317" y="360.704" width="16.031" height="15.029"/>
	</g>
</g>
<g>
</g>
<g>
</g>
<g>
</g>
<g>
</g>
<g>
</g>
<g>
</g>
<g>
</g>
<g>
</g>
<g>
</g>
<g>
</g>
<g>
</g>
<g>
</g>
<g>
</g>
<g>
</g>
<g>
</g>

</symbol>
<symbol id="breakfast" viewBox="0 0 473.67 473.67">
<g>
	<g>
		<path d="M433.294,344.171c23.247-3.74,40.349-23.79,40.376-47.336v-48c0-4.418-3.582-8-8-8H241.534c-4.418,0-8,3.582-8,8v72
			H217.67v-192c0.002-1.081-0.219-2.151-0.648-3.144L193.67,71.235v-38.4c0-4.418-3.582-8-8-8h-144c-4.418,0-8,3.582-8,8v38.4
			l-23.352,54.48c-0.426,0.985-0.646,2.047-0.648,3.12v274.824c-10.984,8.626-12.895,24.523-4.269,35.507
			c4.802,6.115,12.15,9.681,19.925,9.669H417.67c3.047,0.017,5.838-1.699,7.2-4.424l13.744-27.576h35.056v-16h-72.296
			C419.558,387.319,431.158,366.727,433.294,344.171z M433.67,256.835h24v40c-0.055,14.547-9.914,27.227-24,30.864V256.835z
			 M197.542,120.835h-23.744l11.872-27.688L197.542,120.835z M201.67,136.835v184h-32v-184H201.67z M49.67,40.835h128v24h-128
			V40.835z M46.942,80.835h126.6l-17.144,40h-126.6L46.942,80.835z M25.67,136.835h128v184h-17
			c-7.313-0.002-14.269,3.157-19.08,8.664c-2.048,2.393-3.628,5.15-4.656,8.128l-38.928,11.12
			c-9.907,2.909-17.071,11.521-18.128,21.792L25.67,392.115V136.835z M25.326,432.835c-4.025,0.005-7.597-2.577-8.856-6.4
			c-1.313-3.888,0.079-8.176,3.424-10.552l38.312-27.368l8.864,44.32H25.326z M83.382,432.835l-11.576-57.904
			c-0.926-4.765,1.932-9.45,6.592-10.808l33.824-9.664l10.608,78.376H83.382z M138.982,432.835l-11.568-85.432
			c-0.68-5.111,2.911-9.806,8.022-10.486c0.409-0.054,0.821-0.082,1.234-0.082h96.872c0.068,25.231,12.035,48.952,32.288,64h-64.16
			v16h35.056l8,16H138.982z M420.726,416.835l-8,16H262.614l-8-16H420.726z M353.534,400.835H313.67
			c-35.403-0.044-64.092-28.733-64.136-64.136v-79.864H417.67v79.864C417.631,372.104,388.939,400.795,353.534,400.835z"/>
	</g>
</g>
<g>
	<g>
		<path d="M321.534,368.835c-22.08-0.026-39.974-17.92-40-40v-8h-16v8c0.04,30.911,25.089,55.96,56,56h8v-16H321.534z"/>
	</g>
</g>
<g>
	<g>
		<rect x="265.534" y="288.835" width="16" height="16"/>
	</g>
</g>
<g>
	<g>
		<path d="M421.67,144.835h-96c-6.627,0-12-5.373-12-12c0-6.627,5.373-12,12-12h36c22.08-0.026,39.974-17.92,40-40h-16
			c0,13.255-10.745,24-24,24h-36c-15.464,0-28,12.536-28,28s12.536,28,28,28h96c6.627,0,12,5.373,12,12c0,6.627-5.373,12-12,12h-116
			c-22.08,0.026-39.974,17.92-40,40h16c0-13.255,10.745-24,24-24h116c15.464,0,28-12.536,28-28S437.134,144.835,421.67,144.835z"/>
	</g>
</g>
<g>
	<g>
		<path d="M89.67,176.835c-17.673,0-32,14.327-32,32s14.327,32,32,32s32-14.327,32-32S107.343,176.835,89.67,176.835z
			 M89.67,224.835c-8.837,0-16-7.163-16-16s7.163-16,16-16s16,7.163,16,16S98.507,224.835,89.67,224.835z"/>
	</g>
</g>
<g>
	<g>
		<rect x="57.67" y="256.835" width="64" height="16"/>
	</g>
</g>
<g>
	<g>
		<rect x="57.67" y="288.835" width="64" height="16"/>
	</g>
</g>
<g>
</g>
<g>
</g>
<g>
</g>
<g>
</g>
<g>
</g>
<g>
</g>
<g>
</g>
<g>
</g>
<g>
</g>
<g>
</g>
<g>
</g>
<g>
</g>
<g>
</g>
<g>
</g>
<g>
</g>

</symbol>
<symbol id="can-drinks" viewBox="-111 0 512 512"><path d="m262.691406 42.105469c5.328125-2.644531 9-8.144531 9-14.488281v-11.453126c0-8.914062-7.25-16.164062-16.160156-16.164062h-220.972656c-8.910156 0-16.164063 7.25-16.164063 16.164062v11.453126c0 6.34375 3.675781 11.847656 9.007813 14.492187l-27.402344 48.414063v332.25l21.914062 62.433593h13.730469v26.792969h218.804688v-26.792969h13.734375l21.914062-62.433593v-332.25zm-23.234375 454.898437h-188.816406v-11.796875h188.816406zm18.09375-26.792968h-225.007812l-17.550781-49.996094v-325.742188l28.695312-50.691406h101.535156v-14.996094h-110.664062c-.644532 0-1.167969-.523437-1.167969-1.167968v-11.453126c0-.644531.523437-1.167968 1.167969-1.167968h220.972656c.644531 0 1.167969.523437 1.167969 1.167968v11.453126c0 .644531-.523438 1.167968-1.167969 1.167968h-17.609375l31.820313 56.214844h-232.253907v14.996094h237.613281v314h-237.613281v14.996094h234.53125zm0 0"/><path d="m251.738281 246.386719h-213.382812v62.414062h213.382812zm-14.992187 47.417969h-183.394532v-32.425782h183.390626v32.425782zm0 0"/><path d="m221.058594 355.117188c-10.425782 2.710937-18.652344 10.9375-21.363282 21.367187h-109.292968c-2.710938-10.429687-10.9375-18.65625-21.367188-21.367187v-33.820313h-14.996094v47.863281h7.5c8.171876 0 14.820313 6.648438 14.820313 14.820313v7.496093h137.375v-7.496093c0-8.171875 6.648437-14.820313 14.824219-14.820313h7.496094v-47.863281h-14.996094zm0 0"/><path d="m69.035156 200.066406c10.429688-2.710937 18.65625-10.9375 21.367188-21.363281h6.957031c3.765625 22.921875 23.714844 40.46875 47.6875 40.46875s43.925781-17.546875 47.691406-40.46875h6.957031c2.710938 10.425781 10.9375 18.652344 21.363282 21.363281v33.824219h14.996094v-47.863281h-7.496094c-8.175782 0-14.824219-6.648438-14.824219-14.824219v-7.496094h-20.886719c-3.457031-23.277343-23.574218-41.191406-47.800781-41.191406-24.222656 0-44.339844 17.914063-47.800781 41.191406h-20.886719v7.496094c0 8.175781-6.648437 14.824219-14.820313 14.824219h-7.5v47.863281h14.996094zm76.011719-62.554687c18.382813 0 33.335937 14.949219 33.335937 33.332031 0 18.378906-14.953124 33.332031-33.335937 33.332031-18.378906 0-33.332031-14.953125-33.332031-33.332031 0-18.382812 14.953125-33.332031 33.332031-33.332031zm0 0"/><path d="m265.105469 228.640625h-14.996094v-61.167969h14.996094zm0-71.164063h-14.996094v-14.996093h14.996094zm0-24.992187h-14.996094v-14.996094h14.996094zm0 0"/><path d="m244.300781 75.003906h-54.695312v-14.996094h54.695312zm-64.691406 0h-14.996094v-14.996094h14.996094zm-24.992187 0h-14.996094v-14.996094h14.996094zm0 0"/><path d="m145.046875 194.167969c-5.976563 0-11.949219-2.273438-16.5-6.824219l10.601563-10.605469c3.253906 3.253907 8.546874 3.253907 11.796874 0 3.25-3.25 3.25-8.542969 0-11.792969l10.601563-10.601562c9.101563 9.097656 9.097656 23.902344 0 33-4.546875 4.550781-10.523437 6.824219-16.5 6.824219zm0 0"/><path d="m208.253906 333.792969h-22.839844v-14.996094h22.839844zm-32.835937 0h-14.996094v-14.996094h14.996094zm-24.992188 0h-14.996093v-14.996094h14.996093zm0 0"/>
</symbol>
<symbol id="cold-starter" viewBox="0 0 57.563 57.563">
<path d="M54.411,20.052c0.08-3.894-2.207-7.397-5.751-8.911c-0.517-3.323-3.195-5.92-6.523-6.36
	c-0.03-0.331-0.093-0.661-0.188-0.987c-0.587-2.004-2.354-3.513-4.395-3.755c-1.304-0.155-2.591,0.174-3.639,0.909
	C32.984,0.332,31.901,0,30.791,0c-2.859,0-5.235,2.112-5.649,4.858c-0.102,0.021-0.2,0.05-0.3,0.074
	c-0.094-0.227-0.191-0.451-0.301-0.669C23.08,1.371,20.5-0.31,18.109,0.076c-1.569,0.255-2.869,1.321-3.632,2.929
	c-1.38-0.635-2.788-0.743-4.06-0.295C9.06,3.188,8.006,4.209,7.369,5.664c-0.845,1.928-0.846,4.407-0.029,6.765
	c-1.101,0.756-1.924,1.867-2.405,3.26c-0.809,2.339-0.539,5.161,0.74,7.746c0.14,0.282,0.293,0.562,0.46,0.837
	c-1.201,0.781-2.1,1.939-2.582,3.352c-0.766,2.242-0.427,4.884,0.93,7.246c0.623,1.085,1.448,2.068,2.409,2.876
	c-0.321,1.344-0.078,2.821,0.704,4.158c1.101,1.878,3.081,3.144,5.167,3.347c3.286,6.171,7.363,8.821,13.637,11.481l0.07,0.03
	c0.882,0.553,1.888,0.802,2.883,0.802c0.591,0,1.174-0.091,1.724-0.247c0.009-0.003,0.018-0.002,0.027-0.005
	c0.004-0.002,0.007-0.005,0.011-0.007c0.468-0.137,0.914-0.318,1.31-0.549c1.898-1.108,2.667-3.001,2.006-4.939
	c-1.896-5.563-1.742-9.741,0.459-12.415c3.809-4.627,12.646-3.49,12.733-3.475l1.028,0.14l0.103-1.032
	c0.014-0.136,0.309-3.358-1.571-5.547c-0.109-0.127-0.224-0.248-0.343-0.363c0.531-0.118,1.057-0.286,1.573-0.505
	C51.98,27.112,54.335,23.75,54.411,20.052z M14.275,43.824l-0.28-0.55l-0.617,0.004c-0.009,0-0.018,0-0.026,0
	c-1.575,0-3.192-0.956-4.029-2.386c-0.61-1.042-0.735-2.179-0.343-3.12l0.304-0.729l-0.638-0.465
	c-0.983-0.716-1.823-1.651-2.429-2.706c-1.069-1.863-1.351-3.906-0.771-5.604c0.434-1.27,1.305-2.206,2.519-2.708l1.185-0.489
	l-0.763-1.029c-0.357-0.483-0.667-0.986-0.919-1.495c-1.027-2.076-1.268-4.396-0.642-6.205c0.414-1.2,1.172-2.092,2.19-2.578
	l0.856-0.41l-0.365-0.877l-0.044-0.095c-0.879-2.076-0.978-4.283-0.262-5.915c0.285-0.651,0.844-1.505,1.881-1.87
	c0.998-0.352,2.191-0.108,3.366,0.682l1.154,0.778l0.368-1.343c0.414-1.506,1.31-2.477,2.46-2.663
	c1.499-0.255,3.275,1.037,4.324,3.113c0.084,0.167,0.162,0.337,0.234,0.511c-0.023,0.013-0.042,0.03-0.065,0.043
	c-0.205,0.122-0.404,0.254-0.595,0.396c-0.115,0.084-0.223,0.174-0.332,0.265c-0.073,0.061-0.144,0.124-0.214,0.187
	c-0.402,0.361-0.759,0.763-1.066,1.202c-0.023,0.033-0.044,0.066-0.067,0.099c-0.177,0.262-0.335,0.534-0.476,0.817
	c-0.035,0.069-0.071,0.138-0.104,0.208c-0.061,0.134-0.117,0.269-0.17,0.407c-0.056,0.144-0.104,0.29-0.15,0.438
	c-0.038,0.123-0.076,0.245-0.107,0.371c-0.055,0.215-0.098,0.434-0.132,0.656c-0.012,0.081-0.023,0.161-0.033,0.243
	c-0.033,0.274-0.055,0.551-0.055,0.833c0,0.183,0.008,0.366,0.022,0.552c-3.79,0.682-6.62,3.975-6.62,7.932
	c0,1.144,0.247,2.278,0.721,3.321c-1.065,1.139-1.663,2.638-1.663,4.22c0,2.364,1.358,4.508,3.445,5.54
	c-0.005,0.535,0.003,1.056,0.021,1.567c0.006,0.167,0.019,0.329,0.027,0.494c0.017,0.34,0.037,0.679,0.065,1.01
	c0.016,0.189,0.038,0.374,0.057,0.56c0.031,0.299,0.065,0.596,0.106,0.887c0.026,0.19,0.056,0.379,0.086,0.566
	c0.045,0.28,0.094,0.557,0.148,0.831c0.036,0.185,0.074,0.369,0.114,0.552c0.06,0.273,0.126,0.544,0.195,0.812
	c0.044,0.173,0.088,0.346,0.135,0.517c0.079,0.281,0.165,0.558,0.254,0.833c0.048,0.151,0.094,0.304,0.145,0.454
	c0.113,0.331,0.237,0.658,0.365,0.984c0.035,0.089,0.066,0.181,0.102,0.27c0.167,0.412,0.346,0.821,0.537,1.226
	c0.054,0.115,0.114,0.229,0.17,0.343c0.141,0.29,0.284,0.579,0.437,0.867c0.082,0.154,0.17,0.308,0.256,0.463
	c0.137,0.247,0.275,0.494,0.421,0.739c0.099,0.167,0.202,0.334,0.304,0.5c0.143,0.233,0.289,0.466,0.44,0.699
	c0.111,0.172,0.225,0.344,0.34,0.516c0.155,0.231,0.314,0.462,0.477,0.694c0.12,0.172,0.241,0.344,0.366,0.516
	c0.171,0.236,0.348,0.474,0.526,0.712c0.127,0.169,0.251,0.338,0.382,0.508c0.194,0.253,0.397,0.509,0.6,0.765
	c0.124,0.157,0.244,0.312,0.371,0.47c0.011,0.014,0.022,0.028,0.033,0.042C19.134,50.756,16.538,48.268,14.275,43.824z M43.2,27.126
	l-0.266-0.044l-0.968,0.224l-0.106,2.207l0.998,0.053c1.231,0.063,2.147,0.462,2.8,1.217c0.793,0.917,1.033,2.182,1.098,3.053
	c-2.751-0.179-9.745-0.152-13.406,4.288c-2.676,3.245-2.949,8.068-0.813,14.336c0.473,1.389-0.5,2.204-1.122,2.567
	c-0.044,0.026-0.094,0.043-0.139,0.067c-1.956-4.812-3.177-9.093-3.835-12.891c-0.004-0.024-0.006-0.047-0.011-0.07
	c-0.52-3.03-0.689-5.753-0.591-8.192c1.4-2.387,5.515-2.483,5.557-2.484c0.552-0.009,0.993-0.462,0.985-1.014
	c-0.008-0.548-0.453-0.986-0.999-0.986c-0.004,0-0.008,0-0.012,0c-0.163,0.002-3.014,0.064-5.276,1.482
	c0.276-1.98,0.735-3.734,1.304-5.292c0.056-0.068,0.107-0.142,0.145-0.227c0.058-0.128,0.085-0.262,0.087-0.394
	c0.717-1.804,1.58-3.318,2.478-4.581c4.484-0.933,7.867,0.47,7.942,0.501c0.131,0.058,0.267,0.084,0.399,0.084
	c0.385,0,0.752-0.224,0.917-0.598c0.222-0.506-0.009-1.096-0.514-1.318c-0.139-0.061-2.898-1.238-6.865-0.949
	c1.937-2.021,3.639-2.937,3.892-3.066c1.453-0.696,3.576,0.203,4.273,0.61c0.159,0.094,0.333,0.138,0.506,0.138
	c0.342,0,0.676-0.176,0.862-0.492c0.28-0.476,0.123-1.088-0.354-1.369c-0.114-0.068-2.362-1.368-4.665-1.107
	c0.197-0.811,0.634-1.548,0.857-1.844c0.335-0.438,0.251-1.065-0.188-1.4c-0.437-0.335-1.066-0.253-1.401,0.187
	c-0.063,0.081-1.375,1.821-1.372,3.824c-1.455,0.891-5.214,3.592-7.844,9.02c-0.142,0.292-0.279,0.606-0.415,0.921
	c-2.728-1.865-2.279-5.183-2.254-5.344c0.085-0.544-0.286-1.055-0.831-1.142c-0.544-0.092-1.058,0.285-1.145,0.83
	c-0.29,1.815,0.126,5.555,3.495,7.564c-0.744,2.188-1.308,4.8-1.482,7.883c-0.02,0.097-0.024,0.191-0.016,0.287
	c-0.104,2.161-0.004,4.558,0.344,7.183c-1.268-0.698-1.848-1.719-1.885-1.788c-0.261-0.485-0.863-0.671-1.349-0.414
	c-0.488,0.257-0.677,0.862-0.419,1.351c0.053,0.101,1.25,2.314,4.017,3.169c0.672,3.688,1.853,7.811,3.693,12.391
	c-0.632-0.009-1.255-0.166-1.787-0.501l0.001-0.003c-0.108-0.069-0.198-0.136-0.286-0.204c-0.109-0.089-0.219-0.176-0.315-0.283
	c-0.005-0.005-0.011-0.01-0.016-0.015l-0.42-0.478c-6.262-7.207-9.396-12.479-9.147-21.295l0.021-0.729l-0.688-0.242
	c-1.669-0.591-2.791-2.175-2.791-3.941c0-1.257,0.558-2.436,1.53-3.234l0.656-0.538l-0.426-0.735
	c-0.535-0.925-0.818-1.974-0.818-3.033c0-3.26,2.554-5.919,5.814-6.056l1.215-0.051l-0.284-1.182
	c-0.098-0.406-0.147-0.809-0.147-1.195c0-0.307,0.034-0.606,0.087-0.9c0.013-0.075,0.034-0.147,0.05-0.22
	c0.052-0.229,0.117-0.454,0.199-0.671c0.022-0.06,0.045-0.119,0.07-0.178c0.109-0.257,0.233-0.507,0.381-0.741
	c0.006-0.009,0.01-0.019,0.016-0.028c0.322-0.504,0.733-0.945,1.206-1.311c0.065-0.05,0.134-0.094,0.201-0.141
	c0.16-0.112,0.326-0.213,0.498-0.306c0.108-0.058,0.216-0.114,0.329-0.164c0.526-0.237,1.094-0.401,1.697-0.446l0.924-0.07V5.736
	l-0.002-0.078C27.108,3.636,28.761,2,30.791,2c0.904,0,1.784,0.344,2.477,0.969l0.701,0.633l0.672-0.664
	c0.706-0.698,1.675-1.032,2.678-0.913c1.256,0.148,2.346,1.085,2.71,2.331c0.121,0.411,0.157,0.829,0.108,1.242l-0.103,1.115h1.125
	c2.927,0,5.376,2.288,5.577,5.209l0.046,0.657l0.621,0.218c3.063,1.074,5.075,3.973,5.008,7.214c-0.06,2.91-1.935,5.565-4.776,6.765
	C46.205,27.379,44.754,27.493,43.2,27.126z"/>
<g>
</g>
<g>
</g>
<g>
</g>
<g>
</g>
<g>
</g>
<g>
</g>
<g>
</g>
<g>
</g>
<g>
</g>
<g>
</g>
<g>
</g>
<g>
</g>
<g>
</g>
<g>
</g>
<g>
</g>

</symbol>
<symbol id="delights" viewBox="0 0 480 480.15479"><path d="m469.742188 157.8125c2.285156-2.289062 2.96875-5.730469 1.734374-8.71875-1.238281-2.988281-4.15625-4.9375-7.390624-4.9375h-4.097657c-38.742187-88.996094-127.289062-145.878906-224.335937-144.1171875-97.042969 1.7617185-183.46875 61.8203125-218.960938 152.1601565-35.488281 90.339843-13.054687 193.164062 56.84375 260.507812.566406.792969 1.277344 1.46875 2.09375 2 17.898438 16.917969 38.289063 30.988281 60.457032 41.71875v15.730469c0 3.234375 1.945312 6.152344 4.933593 7.390625.972657.40625 2.015625.609375 3.066407.609375 2.121093-.003906 4.15625-.84375 5.65625-2.34375l11.144531-11.144531c86.992187 30.46875 183.753906 8.402343 248.933593-56.777344 65.179688-65.179687 87.25-161.941406 56.777344-248.9375zm-27.3125-13.65625h-87.03125l50.34375-50.34375c.679687-.707031 1.222656-1.535156 1.597656-2.441406 14.136718 15.847656 25.949218 33.617187 35.089844 52.785156zm-63.761719 82.101562c-.375.316407-.726563.664063-1.039063 1.039063l-150.34375 150.355469c-.410156.332031-.785156.707031-1.121094 1.117187l-69.277343 69.289063c-1.601563-.640625-3.203125-1.265625-4.800781-1.9375v-285.964844h292.6875zm-3.199219 25.816407c-5.851562 65.613281-57.851562 117.617187-123.464844 123.472656zm-100.070312-107.917969 10.34375-10.34375c3.03125-3.140625 2.988281-8.128906-.097657-11.214844-3.085937-3.085937-8.078125-3.128906-11.214843-.097656l-21.65625 21.65625h-41.375l10.34375-10.34375c3.03125-3.140625 2.988281-8.128906-.097657-11.214844-3.085937-3.085937-8.078125-3.128906-11.214843-.097656l-21.65625 21.65625h-41.375l10.34375-10.34375c3.03125-3.140625 2.988281-8.128906-.097657-11.214844-3.085937-3.085937-8.078125-3.128906-11.214843-.097656l-32 32c-2.078126 2.007812-2.914063 4.980469-2.183594 7.777344.734375 2.796875 2.917968 4.984375 5.714844 5.714844 2.796874.730468 5.773437-.101563 7.78125-2.179688l10.34375-10.347656v41.378906l-21.65625 21.65625c-2.078126 2.007812-2.914063 4.980469-2.183594 7.777344.734375 2.796875 2.917968 4.984375 5.714844 5.714844 2.796874.730468 5.773437-.101563 7.78125-2.179688l10.34375-10.347656v41.378906l-21.65625 21.65625c-2.078126 2.007812-2.914063 4.980469-2.183594 7.777344.734375 2.796875 2.917968 4.984375 5.714844 5.714844 2.796874.730468 5.773437-.101563 7.78125-2.179688l10.34375-10.347656v57.378906l-48 48v-292.6875h292.6875l-48 48zm121.238281-64h-313.101563c86.921875-85.335938 226.175782-85.335938 313.101563 0zm-380.550781 160c-.035157-54.496094 19.886718-107.117188 56-147.929688v295.855469c-36.113282-40.808593-56.035157-93.433593-56-147.925781zm75.664062 167.648438 44.335938-44.339844v74.992187c-15.953126-8.40625-30.839844-18.699219-44.335938-30.652343zm372.335938-167.648438c-.019532 71.210938-33.886719 138.171875-91.234376 180.386719-57.351562 42.214843-131.351562 54.652343-199.351562 33.507812l62.023438-62.023437c1.523437.046875 3.035156.128906 4.5625.128906 83.910156-.09375 151.90625-68.09375 152-152 0-1.53125-.082032-3.042969-.128907-4.5625l62.023438-62.023438c6.71875 21.554688 10.125 44.007813 10.105469 66.585938zm0 0"/><path d="m184.085938 232.15625c2.121093-.003906 4.15625-.84375 5.65625-2.34375l32-32c3.03125-3.140625 2.988281-8.128906-.097657-11.214844-3.085937-3.085937-8.078125-3.128906-11.214843-.097656l-32 32c-2.289063 2.285156-2.972657 5.726562-1.734376 8.714844 1.238282 2.988281 4.15625 4.9375 7.390626 4.941406zm0 0"/><path d="m184.085938 296.15625c2.121093-.003906 4.15625-.84375 5.65625-2.34375l96-96c3.03125-3.140625 2.988281-8.128906-.097657-11.214844-3.085937-3.085937-8.078125-3.128906-11.214843-.097656l-96 96c-2.289063 2.285156-2.972657 5.726562-1.734376 8.714844 1.238282 2.988281 4.15625 4.9375 7.390626 4.941406zm0 0"/><path d="m338.429688 186.5-160 160c-2.078126 2.007812-2.914063 4.980469-2.183594 7.777344.734375 2.796875 2.917968 4.984375 5.714844 5.714844 2.796874.730468 5.773437-.101563 7.78125-2.179688l160-160c3.03125-3.140625 2.988281-8.128906-.097657-11.214844-3.085937-3.085937-8.078125-3.128906-11.214843-.097656zm0 0"/>
</symbol>
<symbol id="food" viewBox="0 0 60 60">
<g>
	<path d="M18.35,20.805c0.195,0.195,0.451,0.293,0.707,0.293c0.256,0,0.512-0.098,0.707-0.293c0.391-0.391,0.391-1.023,0-1.414
		c-1.015-1.016-1.015-2.668,0-3.684c0.87-0.87,1.35-2.026,1.35-3.256s-0.479-2.386-1.35-3.256c-0.391-0.391-1.023-0.391-1.414,0
		s-0.391,1.023,0,1.414c0.492,0.492,0.764,1.146,0.764,1.842s-0.271,1.35-0.764,1.842C16.555,16.088,16.555,19.01,18.35,20.805z"/>
	<path d="M40.35,20.805c0.195,0.195,0.451,0.293,0.707,0.293c0.256,0,0.512-0.098,0.707-0.293c0.391-0.391,0.391-1.023,0-1.414
		c-1.015-1.016-1.015-2.668,0-3.684c0.87-0.87,1.35-2.026,1.35-3.256s-0.479-2.386-1.35-3.256c-0.391-0.391-1.023-0.391-1.414,0
		s-0.391,1.023,0,1.414c0.492,0.492,0.764,1.146,0.764,1.842s-0.271,1.35-0.764,1.842C38.555,16.088,38.555,19.01,40.35,20.805z"/>
	<path d="M29.35,14.805c0.195,0.195,0.451,0.293,0.707,0.293c0.256,0,0.512-0.098,0.707-0.293c0.391-0.391,0.391-1.023,0-1.414
		c-1.015-1.016-1.015-2.668,0-3.684c0.87-0.87,1.35-2.026,1.35-3.256s-0.479-2.386-1.35-3.256c-0.391-0.391-1.023-0.391-1.414,0
		s-0.391,1.023,0,1.414c0.492,0.492,0.764,1.146,0.764,1.842s-0.271,1.35-0.764,1.842C27.555,10.088,27.555,13.01,29.35,14.805z"/>
	<path d="M25.345,28.61c0.073,0,0.147-0.008,0.221-0.024c1.438-0.324,2.925-0.488,4.421-0.488c0.004,0,0.008,0,0.013,0h0
		c0.552,0,1-0.447,1-0.999c0-0.553-0.447-1.001-1-1.001c-0.004,0-0.009,0-0.014,0c-1.643,0-3.278,0.181-4.86,0.537
		c-0.539,0.121-0.877,0.656-0.756,1.195C24.476,28.295,24.888,28.61,25.345,28.61z"/>
	<path d="M9.821,45.081c0.061,0.012,0.121,0.017,0.18,0.017c0.474,0,0.895-0.338,0.983-0.82c1.039-5.698,4.473-10.768,9.186-13.56
		c0.475-0.281,0.632-0.895,0.351-1.37c-0.282-0.475-0.895-0.632-1.37-0.351c-5.204,3.083-8.992,8.661-10.134,14.921
		C8.917,44.462,9.277,44.982,9.821,45.081z"/>
	<path d="M55.624,43.721C53.812,33.08,45.517,24.625,34.957,22.577c0.017-0.16,0.043-0.321,0.043-0.48c0-2.757-2.243-5-5-5
		s-5,2.243-5,5c0,0.159,0.025,0.32,0.043,0.48C14.483,24.625,6.188,33.08,4.376,43.721C2.286,44.904,0,46.645,0,48.598
		c0,5.085,15.512,8.5,30,8.5s30-3.415,30-8.5C60,46.645,57.714,44.904,55.624,43.721z M27.006,22.27
		C27.002,22.212,27,22.154,27,22.098c0-1.654,1.346-3,3-3s3,1.346,3,3c0,0.057-0.002,0.114-0.006,0.172
		c-0.047-0.005-0.094-0.007-0.14-0.012c-0.344-0.038-0.69-0.065-1.038-0.089c-0.128-0.009-0.255-0.022-0.383-0.029
		c-0.474-0.026-0.951-0.041-1.432-0.041s-0.958,0.015-1.432,0.041c-0.128,0.007-0.255,0.02-0.383,0.029
		c-0.348,0.024-0.694,0.052-1.038,0.089C27.1,22.263,27.053,22.264,27.006,22.27z M26.399,24.368
		c0.537-0.08,1.077-0.138,1.619-0.182c0.111-0.009,0.222-0.017,0.333-0.025c1.098-0.074,2.201-0.074,3.299,0
		c0.111,0.008,0.222,0.016,0.333,0.025c0.542,0.044,1.082,0.102,1.619,0.182c10.418,1.575,18.657,9.872,20.152,20.316
		c0.046,0.321,0.083,0.643,0.116,0.965c0.011,0.111,0.026,0.221,0.036,0.332c0.039,0.443,0.068,0.886,0.082,1.329
		c-15.71,3.641-32.264,3.641-47.974,0c0.015-0.443,0.043-0.886,0.082-1.329c0.01-0.111,0.024-0.221,0.036-0.332
		c0.033-0.323,0.07-0.645,0.116-0.965C7.742,34.24,15.981,25.942,26.399,24.368z M30,55.098c-17.096,0-28-4.269-28-6.5
		c0-0.383,0.474-1.227,2.064-2.328c-0.004,0.057-0.002,0.113-0.006,0.17C4.024,46.988,4,47.54,4,48.098v0.788l0.767,0.185
		c8.254,1.98,16.744,2.972,25.233,2.972s16.979-0.991,25.233-2.972L56,48.886v-0.788c0-0.558-0.024-1.109-0.058-1.658
		c-0.004-0.057-0.002-0.113-0.006-0.17C57.526,47.371,58,48.215,58,48.598C58,50.829,47.096,55.098,30,55.098z"/>
</g>
<g>
</g>
<g>
</g>
<g>
</g>
<g>
</g>
<g>
</g>
<g>
</g>
<g>
</g>
<g>
</g>
<g>
</g>
<g>
</g>
<g>
</g>
<g>
</g>
<g>
</g>
<g>
</g>
<g>
</g>

</symbol>
<symbol id="juice" viewBox="0 0 447 447">
<g transform="translate(0 -540.36)">
	<g>
		<g>
			<path d="M381.5,672.16l-49.3-70.5v-53.8c0-4.1-3.4-7.5-7.5-7.5H122.1c-4.1,0-7.5,3.4-7.5,7.5v53.9l-49.3,71.7
				c-0.9,1.3-1.3,2.7-1.3,4.3v302.1c0,4.1,3.4,7.5,7.5,7.5h304c4.1,0,7.5-3.4,7.5-7.5v-303.4
				C382.9,674.96,382.4,673.46,381.5,672.16z M325.1,617.66l38.5,55h-77.7L325.1,617.66z M129.6,555.36h187.6v42.4H129.6V555.36z
				 M266.6,972.36H78.9v-284.7h187.7V972.36z M267.6,672.66H83.9l41.3-59.9v0h185l-42.2,59.3
				C267.9,672.26,267.8,672.46,267.6,672.66z M367.9,972.36h-86.3v-284.7h86.3V972.36z"/>
			<path d="M170.2,921.26c38.3,0,68.3-26.9,68.3-61.2c0-26.5-18-49.1-43.4-58.2c4-1,8-2.2,11.2-3.8c12.8-5.7,28.8-26.1,30.6-28.4
				c1.6-2.1,2-5,1-7.4c-1-2.5-3.3-4.2-5.9-4.6c-3.1-0.4-30.7-3.8-44.2,4.8c-8,4.7-15.6,18.6-19.5,26.8c-2-4.2-4.3-8.5-6.8-12.9
				c-2.1-3.6-6.7-4.8-10.3-2.7c-3.6,2.1-4.8,6.7-2.7,10.3c3,5.2,5.6,10.3,7.8,15.2c-28.9,6.4-50.6,32.4-50.6,63.4
				C105.7,896.56,132.8,921.26,170.2,921.26z M195.4,775.36c0.1-0.1,0.3-0.2,0.4-0.3c3.8-2.5,11.7-3.4,19.6-3.5
				c-5.3,5.6-11.2,11-15.3,12.8c-0.1,0-0.2,0.1-0.3,0.1c-3.5,1.7-9,3-14.2,3.9C189.2,782.16,192.9,776.76,195.4,775.36z
				 M161.5,813.36c0.9,3,1.6,6.1,2.3,9.2c-4.1,0-7.4,3.4-7.4,7.5s3.4,7.5,7.5,7.5h8.8h7.6c4.1,0,7.5-3.4,7.5-7.5s-3.4-7.5-7.5-7.5
				h-1.2c-0.6-3.3-1.3-6.5-2.1-9.6c26.2,3,46.5,22.9,46.5,47c0,25.9-23.4,46.2-53.3,46.2v0c-29.1,0-49.5-18-49.5-43.7
				C120.7,837.96,138.3,817.46,161.5,813.36z"/>
		</g>
	</g>
</g>
<g>
</g>
<g>
</g>
<g>
</g>
<g>
</g>
<g>
</g>
<g>
</g>
<g>
</g>
<g>
</g>
<g>
</g>
<g>
</g>
<g>
</g>
<g>
</g>
<g>
</g>
<g>
</g>
<g>
</g>

</symbol>
<symbol id="main-dish" viewBox="0 0 512 512">
<g>
	<g>
		<path d="M503.467,409.6H8.533c-4.71,0-8.533,3.814-8.533,8.533C0,469.888,42.112,512,93.867,512h324.267
			C469.888,512,512,469.888,512,418.133C512,413.414,508.186,409.6,503.467,409.6z M418.133,494.933H93.867
			c-39.467,0-72.073-29.918-76.331-68.267h476.919C490.197,465.016,457.6,494.933,418.133,494.933z"/>
	</g>
</g>
<g>
	<g>
		<path d="M256.009,281.6c-0.043,0-0.077,0-0.111,0c-33.63,0-65.929,12.382-90.931,34.876l11.409,12.681
			c21.871-19.661,50.108-30.49,79.531-30.49c0.026,0,0.068,0,0.094,0c47.292,0,87.723,24.695,103.006,62.899l15.855-6.332
			C356.966,310.502,310.306,281.6,256.009,281.6z"/>
	</g>
</g>
<g>
	<g>
		<path d="M321.229,339.234c-43.537-35.951-108.203-29.781-144.162,13.739l13.158,10.863
			c29.961-36.267,83.857-41.421,120.124-11.452c5.888,4.873,11.093,10.505,15.471,16.725l13.978-9.805
			C334.541,351.838,328.294,345.088,321.229,339.234z"/>
	</g>
</g>
<g>
	<g>
		<path d="M303.778,369.374c-26.897-26.359-70.195-25.899-96.546,0.973l12.194,11.947c19.763-20.156,52.25-20.489,72.405-0.742
			c9.771,9.566,15.369,22.895,15.369,36.582h17.067C324.267,399.889,316.8,382.114,303.778,369.374z"/>
	</g>
</g>
<g>
	<g>
		<path d="M350.242,315.733c-0.128,0-0.247,0-0.375,0h-8.533V332.8h8.567c48.444,0.188,89.813,37.632,93.867,86.042l16.998-1.417
			C455.996,360.329,407.467,315.733,350.242,315.733z"/>
	</g>
</g>
<g>
	<g>
		<path d="M400.751,369.451c-15.292-13.67-35.004-20.591-55.475-19.43c-20.48,1.135-39.287,10.189-52.966,25.472l12.715,11.383
			c10.641-11.887,25.267-18.935,41.199-19.823c16.017-0.828,31.249,4.48,43.153,15.113c10.726,9.6,17.63,22.75,19.439,37.043
			l16.939-2.15C423.424,398.694,414.541,381.781,400.751,369.451z"/>
	</g>
</g>
<g>
	<g>
		<path d="M360.064,385.263c-22.793-5.854-46.071,7.97-51.917,30.754l16.538,4.233c3.499-13.67,17.476-21.956,31.147-18.449
			c9.054,2.313,16.137,9.387,18.449,18.449l16.538-4.233C386.944,400.913,375.168,389.129,360.064,385.263z"/>
	</g>
</g>
<g>
	<g>
		<path d="M170.846,315.921c-29.534-2.406-58.24,6.81-80.828,25.984c-22.596,19.174-36.369,46.003-38.784,75.529l17.007,1.399
			c2.039-24.994,13.696-47.693,32.811-63.906c19.123-16.222,43.409-24.047,68.403-21.982c13.867,1.126,27.554,5.436,39.586,12.442
			l8.593-14.754C203.409,322.347,187.23,317.261,170.846,315.921z"/>
	</g>
</g>
<g>
	<g>
		<path d="M171.529,350.259c-41.975-5.188-80.444,24.798-85.615,66.833l16.939,2.082c4.019-32.691,33.886-55.927,66.586-51.985
			c27.247,3.362,48.623,24.738,51.977,51.985l16.956-2.082C234.052,382.054,206.566,354.569,171.529,350.259z"/>
	</g>
</g>
<g>
	<g>
		<path d="M172.919,385.476c-11.017-2.884-22.519-1.289-32.35,4.454c-9.839,5.76-16.845,15.01-19.721,26.035l16.512,4.318
			c1.732-6.613,5.939-12.169,11.836-15.616c5.897-3.456,12.8-4.403,19.413-2.671c8.943,2.338,15.957,9.344,18.295,18.295
			l16.504-4.326C199.509,401.05,187.827,389.367,172.919,385.476z"/>
	</g>
</g>
<g>
	<g>
		<path d="M256,384c-18.825,0-34.133,15.309-34.133,34.133h17.067c0-9.412,7.654-17.067,17.067-17.067
			c9.412,0,17.067,7.654,17.067,17.067h17.067C290.133,399.309,274.825,384,256,384z"/>
	</g>
</g>
<g>
	<g>
		<rect x="85.333" y="34.133" width="68.267" height="17.067"/>
	</g>
</g>
<g>
	<g>
		<rect x="102.4" y="68.267" width="51.2" height="17.067"/>
	</g>
</g>
<g>
	<g>
		<path d="M66.543,183.501c-9.045-15.812-9.045-35.447,0-51.26c12.032-21.035,12.032-47.172,0-68.207
			c-9.045-15.812-9.045-35.447,0-51.26c1.51-2.645,1.502-5.888-0.026-8.525C64.99,1.621,62.174,0,59.136,0H34.133v17.067H46.08
			c-5.922,18.236-4.045,38.494,5.649,55.433c9.045,15.812,9.045,35.447,0,51.26c-12.032,21.035-12.032,47.172,0,68.207
			c9.045,15.812,9.045,35.447,0,51.26c-12.032,21.043-12.032,47.172-0.35,67.524c2.611,5.7,4.821,11.614,6.571,17.553l16.367-4.821
			c-1.98-6.724-4.48-13.389-7.774-20.514c-9.045-15.804-9.045-35.456,0-51.26C78.575,230.673,78.575,204.535,66.543,183.501z"/>
	</g>
</g>
<g>
	<g>
		<path d="M511.983,62.208c-0.7-24.969-21.572-44.527-46.566-44.032l-248.653,7.313L203.75,12.476
			C195.695,4.429,184.986,0,173.611,0c-0.017,0-0.034,0-0.043,0H94.464c-3.063,0-5.888,1.638-7.407,4.292
			c-12.032,21.035-12.032,47.172,0,68.207c9.045,15.812,9.045,35.448,0,51.26c-12.032,21.035-12.032,47.172,0,68.207
			c9.045,15.812,9.045,35.447,0,51.26c-12.032,21.043-12.032,47.172,0,68.207c1.169,2.048,2.193,4.173,3.072,6.366l15.838-6.349
			c-1.161-2.91-2.543-5.768-4.096-8.482c-9.045-15.804-9.045-35.456,0-51.26c12.032-21.035,12.032-47.172,0-68.207
			c-9.045-15.812-9.045-35.447,0-51.26c2.338-4.096,4.224-8.371,5.649-12.774h66.039c0.017,0,0.026,0,0.043,0
			c11.383,0,22.093-4.437,30.148-12.484l12.911-12.911l247.381,14.541c0.887,0.051,2.125,0.034,2.645,0.077
			c24.969,0,45.295-20.309,45.312-45.286L511.983,62.208z M466.68,91.622c-0.657-0.145-1.075-0.017-1.621-0.043L213.837,76.817
			c-2.432-0.179-4.813,0.759-6.537,2.483l-15.616,15.616c-4.83,4.821-11.247,7.484-18.091,7.484c-0.009,0-0.017,0-0.026,0h-62.805
			c0.811-13.193-2.15-26.581-8.892-38.374c-8.235-14.404-8.969-31.991-2.193-46.959h73.899c0.009,0,0.017,0,0.026,0
			c6.827,0,13.252,2.662,18.082,7.492L207.3,40.175c1.655,1.655,3.977,2.628,6.281,2.492l252.322-7.433
			c15.932-0.435,28.578,11.887,29.03,28.16C494.916,78.967,482.244,91.622,466.68,91.622z"/>
	</g>
</g>
<g>
	<g>
		<path d="M135.996,183.501c-9.045-15.812-9.045-35.447-0.009-51.251c3.413-5.939,5.905-12.331,7.415-19.004l-16.648-3.763
			c-1.135,5.009-3.004,9.813-5.572,14.285c-12.032,21.035-12.032,47.172,0,68.207c9.045,15.812,9.045,35.456-0.009,51.277
			c-11.136,19.558-12.006,43.375-2.33,63.693l15.403-7.33c-7.287-15.292-6.622-33.203,1.749-47.906
			C148.028,230.673,148.028,204.536,135.996,183.501z"/>
	</g>
</g>
<g>
	<g>
		<rect x="34.133" y="34.133" width="17.067" height="17.067"/>
	</g>
</g>
<g>
	<g>
		<rect x="34.133" y="68.267" width="25.6" height="17.067"/>
	</g>
</g>
<g>
	<g>
		<rect x="34.133" y="102.4" width="34.133" height="17.067"/>
	</g>
</g>
<g>
</g>
<g>
</g>
<g>
</g>
<g>
</g>
<g>
</g>
<g>
</g>
<g>
</g>
<g>
</g>
<g>
</g>
<g>
</g>
<g>
</g>
<g>
</g>
<g>
</g>
<g>
</g>
<g>
</g>

</symbol>
<symbol id="menu" viewBox="-42 0 512 512.001"><path d="m135.746094 380.710938c-.988282 1.796874-2.519532 2.335937-3.957032 2.335937s-2.875-.539063-3.863281-2.335937l-10.339843-19.417969v39.371093c0 2.429688-2.964844 3.6875-5.839844 3.6875-2.96875 0-5.84375-1.257812-5.84375-3.6875v-56.183593c0-4.3125 2.875-5.839844 5.84375-5.839844 4.222656 0 6.113281.898437 9.078125 6.199219l11.058593 20.136718 11.054688-20.136718c2.96875-5.300782 4.945312-6.199219 9.171875-6.199219 2.964844 0 5.839844 1.527344 5.839844 5.839844v56.183593c0 2.429688-2.964844 3.6875-5.839844 3.6875-2.96875 0-5.84375-1.257812-5.84375-3.6875v-38.652343zm0 0"/><path d="m190.484375 366.863281h13.664063c2.335937 0 3.683593 2.25 3.683593 4.675781 0 2.066407-1.167969 4.496094-3.683593 4.496094h-13.664063v18.066406h25.4375c2.339844 0 3.6875 2.425782 3.6875 5.214844 0 2.425782-1.167969 5.035156-3.6875 5.035156h-32c-2.605469 0-5.125-1.261718-5.125-3.6875v-58.339843c0-2.425781 2.515625-3.6875 5.125-3.6875h32c2.519531 0 3.6875 2.609375 3.6875 5.035156 0 2.789063-1.347656 5.214844-3.6875 5.214844h-25.4375zm0 0"/><path d="m267.519531 400.664062-19.328125-36.136718v36.136718c0 2.429688-2.964844 3.6875-5.84375 3.6875-2.964844 0-5.84375-1.257812-5.84375-3.6875v-58.339843c0-2.515625 2.878906-3.683594 5.84375-3.683594 4.226563 0 5.933594.898437 8.722656 6.199219l17.347657 33.53125v-36.136719c0-2.515625 2.875-3.597656 5.84375-3.597656 2.875 0 5.839843 1.078125 5.839843 3.597656v58.429687c0 2.425782-2.964843 3.6875-5.839843 3.6875-2.789063 0-5.214844-.898437-6.742188-3.6875zm0 0"/><path d="m332.148438 342.234375c0-2.515625 2.875-3.59375 5.839843-3.59375 2.878907 0 5.84375 1.078125 5.84375 3.59375v42.070313c0 15.011718-9.527343 20.585937-21.574219 20.585937-12.136718 0-21.574218-5.574219-21.574218-20.585937v-42.070313c0-2.515625 2.875-3.59375 5.84375-3.59375 2.875 0 5.839844 1.078125 5.839844 3.59375v42.070313c0 7.011718 3.6875 10.339843 9.890624 10.339843 6.203126 0 9.886719-3.328125 9.886719-10.339843v-42.070313zm0 0"/><path d="m355.257812 422.148438h-42.730468c-4.195313 0-7.59375 3.398437-7.59375 7.589843 0 4.195313 3.398437 7.589844 7.59375 7.589844h42.730468c4.195313 0 7.589844-3.394531 7.589844-7.589844 0-4.191406-3.394531-7.589843-7.589844-7.589843zm0 0"/><path d="m277.207031 422.148438h-172.941406c-4.191406 0-7.589844 3.398437-7.589844 7.589843 0 4.195313 3.398438 7.589844 7.589844 7.589844h172.941406c4.195313 0 7.589844-3.394531 7.589844-7.589844 0-4.191406-3.394531-7.589843-7.589844-7.589843zm0 0"/><path d="m355.257812 306.242188h-250.992187c-4.191406 0-7.589844 3.398437-7.589844 7.589843 0 4.191407 3.398438 7.589844 7.589844 7.589844h250.992187c4.195313 0 7.589844-3.398437 7.589844-7.589844 0-4.191406-3.394531-7.589843-7.589844-7.589843zm0 0"/><path d="m351.035156 212.128906h-7.367187c-2.84375-52.300781-41.074219-95.339844-91.109375-105.527344l1.464844-14.003906c.480468-4.570312-1.011719-9.148437-4.085938-12.558594-3.074219-3.414062-7.472656-5.371093-12.066406-5.371093h-16.214844c-4.597656 0-8.992188 1.960937-12.070312 5.371093-3.074219 3.414063-4.5625 7.992188-4.082032 12.558594l1.464844 14.003906c-50.035156 10.1875-88.265625 53.222657-91.109375 105.523438h-7.367187c-6.515626 0-11.816407 5.300781-11.816407 11.816406v15.664063c0 6.515625 5.300781 11.816406 11.816407 11.816406h242.539062c6.515625 0 11.816406-5.300781 11.816406-11.816406v-15.664063c0-6.511718-5.296875-11.8125-11.8125-11.8125zm-130.167968-121.929687c.210937-.230469.472656-.347657.789062-.347657h16.214844c.3125 0 .578125.117188.789062.347657.210938.234375.300782.511719.265625.820312l-1.417969 13.5625c-2.558593-.171875-5.140624-.269531-7.742187-.269531-2.605469 0-5.183594.097656-7.742187.269531l-1.421876-13.5625c-.03125-.308593.058594-.585937.265626-.820312zm126.800781 146.042969h-235.808594v-8.933594h31.988281c4.195313 0 7.59375-3.398438 7.59375-7.589844s-3.398437-7.589844-7.59375-7.589844h-12.777344c3.242188-51.625 46.265626-92.632812 98.691407-92.632812 52.429687 0 95.453125 41.007812 98.695312 92.632812h-149.289062c-4.195313 0-7.589844 3.398438-7.589844 7.589844s3.394531 7.589844 7.589844 7.589844h168.5zm0 0"/><path d="m409.484375 0h-359.441406c-10.65625 0-19.328125 8.671875-19.328125 19.328125v13.710937h-7.082032c-13.03125 0-23.632812 10.605469-23.632812 23.636719s10.601562 23.636719 23.632812 23.636719h7.082032v32.457031h-7.082032c-13.03125 0-23.632812 10.601563-23.632812 23.636719 0 13.03125 10.601562 23.632812 23.632812 23.632812h7.082032v32.460938h-7.082032c-13.03125 0-23.632812 10.601562-23.632812 23.636719 0 13.03125 10.601562 23.632812 23.632812 23.632812h7.082032v32.460938h-7.082032c-13.03125 0-23.632812 10.601562-23.632812 23.632812 0 13.035157 10.601562 23.636719 23.632812 23.636719h7.082032v32.460938h-7.082032c-13.03125 0-23.632812 10.601562-23.632812 23.632812 0 13.035156 10.601562 23.636719 23.632812 23.636719h7.082032v32.460937h-7.082032c-13.03125 0-23.632812 10.601563-23.632812 23.632813s10.601562 23.636719 23.632812 23.636719h7.082032v13.710937c0 10.65625 8.671875 19.328125 19.328125 19.328125h359.441406c10.65625 0 19.332031-8.671875 19.332031-19.328125v-473.34375c0-10.65625-8.675781-19.328125-19.332031-19.328125zm-378.773437 65.132812h-7.078126c-4.660156 0-8.453124-3.792968-8.453124-8.457031 0-4.660156 3.792968-8.453125 8.453124-8.453125h7.078126zm0 79.726563h-7.078126c-4.660156 0-8.453124-3.792969-8.453124-8.453125 0-4.664062 3.792968-8.453125 8.453124-8.453125h7.078126zm0 79.730469h-7.078126c-4.660156 0-8.453124-3.792969-8.453124-8.453125 0-4.664063 3.792968-8.457031 8.453124-8.457031h7.078126zm0 79.730468h-7.078126c-4.660156 0-8.453124-3.792968-8.453124-8.457031 0-4.660156 3.792968-8.453125 8.453124-8.453125h7.078126zm0 79.726563h-7.078126c-4.660156 0-8.453124-3.789063-8.453124-8.453125 0-4.660156 3.792968-8.453125 8.453124-8.453125h7.078126zm0 79.730469h-7.078126c-4.660156 0-8.453124-3.792969-8.453124-8.453125 0-4.664063 3.792968-8.453125 8.453124-8.453125h7.078126zm382.921874 28.890625c0 2.289062-1.859374 4.152343-4.148437 4.152343h-359.441406c-2.289063 0-4.148438-1.863281-4.148438-4.152343v-473.339844c0-2.285156 1.859375-4.148437 4.148438-4.148437h359.441406c2.289063 0 4.148437 1.863281 4.148437 4.148437zm0 0"/>
</symbol>
<symbol id="order" viewBox="0 -21 512 512"><path d="m490.152344 240.304688h-17.773438c-1.664062-27.023438-8.246094-53.105469-19.636718-77.625-1.738282-3.753907-6.191407-5.378907-9.945313-3.640626-3.753906 1.742188-5.382813 6.195313-3.640625 9.949219 10.464844 22.535157 16.570312 46.492188 18.210938 71.316407h-343.070313c-4.136719 0-7.488281 3.351562-7.488281 7.488281s3.351562 7.488281 7.488281 7.488281h375.855469c3.789062 0 6.867187 3.082031 6.867187 6.871094v9.140625c0 3.789062-3.078125 6.871093-6.867187 6.871093h-468.304688c-3.789062 0-6.867187-3.082031-6.867187-6.871093v-9.140625c0-3.789063 3.078125-6.871094 6.867187-6.871094h57.539063c4.136719 0 7.492187-3.351562 7.492187-7.488281s-3.355468-7.488281-7.492187-7.488281h-24.753907c3.300782-49.753907 24.636719-96.039063 60.597657-131.046876 34.65625-33.734374 79.4375-53.59375 127.296875-56.742187.027344 0 .054687.003906.082031 0 2.039063-.132813 4.054687-.234375 6.046875-.308594.398438-.011719.792969-.03125 1.191406-.042969.710938-.023437 1.417969-.039062 2.117188-.054687 1.34375-.023437 2.6875-.046875 4.035156-.046875 1.789062 0 3.578125.035156 5.363281.082031.527344.015625 1.050781.03125 1.582031.046875 1.375.046875 2.746094.117188 4.117188.191406.726562.039063 1.453125.078126 2.183594.125 61.488281 4.039063 118.058594 36.015626 153.261718 87.289063 2.339844 3.40625 7.003907 4.277344 10.414063 1.933594 3.410156-2.339844 4.277344-7.003907 1.933594-10.414063-34.640625-50.457031-88.558594-83.503906-148.152344-92.027344 3.734375-5.796874 5.832031-12.621093 5.832031-19.769531 0-4.070312-1.816406-11.574219-13.980468-16.050781-6.074219-2.234375-14.085938-3.46875-22.554688-3.46875-8.472656 0-16.484375 1.234375-22.558594 3.46875-12.164062 4.476562-13.976562 11.980469-13.976562 16.050781 0 7.128907 2.089844 13.941407 5.800781 19.726563-45.246094 6.402344-87.210937 26.886718-120.484375 59.277344-38.871094 37.839843-61.835938 87.949218-65.160156 141.777343h-17.773438c-12.046875.003907-21.847656 9.804688-21.847656 21.851563v9.140625c0 12.050781 9.800781 21.851562 21.847656 21.851562h80.683594c-4.027344 2.757813-7.886719 5.851563-11.5 9.285157l-.148438.140624c-.230468.214844-.449218.445313-.648437.691407l-35.558594 43.179687c-4.460937-2.832031-9.742187-3.863281-14.953125-2.863281-5.433594 1.039063-10.132812 4.132813-13.234375 8.710937l-13.984375 20.621094c-6.394531 9.433594-3.925781 22.320313 5.5 28.722656l95.691406 65.007813c3.46875 2.355469 7.476563 3.582031 11.582032 3.582031 1.304687 0 2.621094-.125 3.933594-.375 5.429687-1.039062 10.128906-4.132812 13.230468-8.710937l13.984375-20.621094c6.394531-9.433594 3.929688-22.320313-5.496093-28.722656l-.546876-.371094c6.660157-7.558594 15.539063-12.976563 25.199219-15.210937 20.355469-4.714844 44.308594-1.679688 60.554688 1.011718 20.097656 3.328125 41.207031 2.191406 61.046875-3.289062l27.578125-7.621094c18.371093-5.078125 35.277343-13.628906 50.253906-25.417969.113281-.089843.222656-.179687.332031-.277343l47.347656-41.933594c8.070313-6.175782 9.828126-16.871094 7.042969-25.539063h60.414063c12.046875 0 21.847656-9.800781 21.847656-21.847656v-9.144531c0-12.046875-9.800781-21.847656-21.847656-21.847656zm-234.152344-225.324219c12.613281 0 20.171875 3.121093 21.554688 4.855469-.101563 7.105468-3.695313 13.660156-9.542969 17.589843-1.472657-.078125-2.925781-.140625-4.375-.195312-.488281-.015625-.976563-.039063-1.464844-.050781-2.089844-.0625-4.152344-.09375-6.171875-.09375-1.433594 0-2.894531.019531-4.367188.050781-.710937.011719-1.425781.03125-2.140624.054687-.851563.027344-1.710938.054688-2.570313.089844-.980469.042969-1.960937.085938-2.9375.140625-5.847656-3.929687-9.4375-10.484375-9.539063-17.585937 1.382813-1.734376 8.941407-4.855469 21.554688-4.855469zm53.710938 281.777343c-.558594-1.265624-1.226563-2.46875-1.980469-3.613281h71.839843l-31.0625 20.558594-44.277343 12.808594-1.503907.035156c8.523438-7.105469 11.632813-19.238281 6.984376-29.789063zm-81.21875-3.613281-10.808594 2.253907-8.355469-2.253907zm-84.464844 138.964844-13.980469 20.621094c-.855469 1.265625-2.152344 2.117187-3.652344 2.40625-1.496093.285156-3.019531-.027344-4.28125-.886719l-95.691406-65.007812c-2.601563-1.765626-3.28125-5.320313-1.515625-7.921876l13.984375-20.625c.855469-1.261718 2.148437-2.117187 3.648437-2.402343.363282-.070313.726563-.105469 1.085938-.105469 1.132812 0 2.238281.339844 3.195312.992188l5.167969 3.507812c0 .003906.003907.003906.003907.003906l90.519531 61.492188c2.601562 1.765625 3.28125 5.324218 1.515625 7.925781zm269.476562-125.253906c-.179687.128906-.351562.269531-.519531.417969l-47.398437 41.984374c-13.363282 10.480469-28.441407 18.089844-44.8125 22.613282l-27.578126 7.621094c-17.757812 4.910156-36.640624 5.929687-54.605468 2.953124-17.507813-2.898437-43.429688-6.144531-66.386719-.828124-13.296875 3.078124-25.4375 10.71875-34.269531 21.34375l-70.792969-48.089844 34.359375-41.726563c12.996094-12.269531 29.476562-19.554687 45.257812-20h.304688c4.894531-.082031 10.074219 1.359375 15.554688 2.894531 1.101562.304688 2.199218.613282 3.300781.910157l49.59375 13.378906c1.136719.304687 2.328125.339844 3.480469.097656l64.953124-13.542969c2.945313-.609374 6.039063-.011718 8.488282 1.648438 1.582031 1.074219 2.816406 2.550781 3.570312 4.265625 2.226563 5.050781.128906 10.980469-4.847656 13.542969l-22.160156 11.734375c-3.066406 1.625-4.613282 5.140625-3.742188 8.5.875 3.363281 3.933594 5.652343 7.410156 5.605469l32.871094-.710938c.652344-.015625 1.296875-.113281 1.917969-.292969l46.316406-13.398437c.730469-.210938 1.421875-.53125 2.054688-.949219l46.726562-30.929687c3.921875-2.421876 9.140625-4.414063 11.917969-.316407 2.164062 3.1875 2.214844 8.925781-.964844 11.273438zm0 0"/>
</symbol>
<symbol id="peppered-bites" viewBox="0 0 512 512">
<g>
	<g>
		<path d="M468.467,125.688c-23.347-18.607-56.3-33.841-97.944-45.277c-80.091-21.994-170.408-24.368-205.522-24.368
			C74.019,56.043,0,130.063,0,221.045v69.91c0,90.983,74.019,165.002,165.001,165.002c41.953,0,73.46-13.142,106.817-27.056
			c34.496-14.389,70.165-29.267,120.331-29.267c66.086,0,119.851-53.766,119.851-119.851v-69.91
			C512,177.034,497.353,148.71,468.467,125.688z M460.046,296.642c3.786,4.023,10.115,4.212,14.136,0.427
			c6.782-6.386,12.748-13.501,17.818-21.162v3.876c0,55.059-44.793,99.851-99.851,99.851c-54.17,0-91.718,15.662-128.03,30.808
			c-31.457,13.121-61.169,25.515-99.118,25.515c-76.82,0-139.869-60.053-144.693-135.678c28.08,51.073,82.409,85.766,144.693,85.766
			c41.953,0,73.46-13.142,106.817-27.056c34.496-14.389,70.165-29.267,120.331-29.267c3.727,0,7.492-0.176,11.192-0.522
			c5.499-0.515,9.539-5.39,9.024-10.889c-0.515-5.498-5.396-9.537-10.889-9.023c-3.083,0.288-6.22,0.435-9.327,0.435
			c-54.17,0-91.718,15.662-128.03,30.808c-31.457,13.121-61.169,25.515-99.118,25.515c-79.954,0-145.001-65.047-145.001-145
			c0-79.954,65.047-145.002,145.001-145.002c34.303,0,122.481,2.305,200.226,23.654C449.347,122.799,492,159.867,492,209.873
			c0,27.295-11.492,53.769-31.528,72.633C456.451,286.292,456.26,292.621,460.046,296.642z"/>
	</g>
</g>
<g>
	<g>
		<path d="M451.823,303.025c-2.352-4.997-8.311-7.142-13.306-4.79c-0.072,0.033-0.167,0.08-0.238,0.115
			c-4.939,2.47-6.941,8.477-4.472,13.416c1.752,3.504,5.284,5.53,8.953,5.53c1.482,0,2.986-0.331,4.404-1.028
			C452.067,313.875,454.154,307.978,451.823,303.025z"/>
	</g>
</g>
<g>
	<g>
		<path d="M237.188,98.862l-0.515-0.042c-5.514-0.43-10.325,3.668-10.764,9.174c-0.439,5.505,3.668,10.324,9.173,10.764l0.511,0.04
			c0.271,0.022,0.54,0.033,0.808,0.033c5.161,0,9.538-3.97,9.958-9.203C246.799,104.122,242.693,99.303,237.188,98.862z"/>
	</g>
</g>
<g>
	<g>
		<path d="M465.756,182.933c-9.919-19.604-31.989-36.546-65.599-50.354c-27.195-11.173-56.936-18.231-77.097-22.186
			c-12.083-2.369-24.745-4.485-37.635-6.287c-5.467-0.772-10.523,3.048-11.289,8.519c-0.765,5.47,3.049,10.523,8.519,11.288
			c12.53,1.752,24.829,3.807,36.556,6.107c68.69,13.471,115.599,36.048,128.699,61.94c2.752,5.441,4.09,11.3,4.09,17.912
			c0,33.001-26.849,59.85-59.851,59.85c-33.368,0-65.771,5.453-99.061,16.672c-14.338,4.833-28.26,10.61-41.723,16.198
			c-8.905,3.695-18.113,7.517-27.253,10.98c-23.065,8.742-40.744,12.472-59.111,12.472c-57.898,0-105.002-47.103-105.002-105
			c0-57.898,47.104-105.002,105.002-105.002c11.295,0,22.762,0.214,34.08,0.636c1.921,0.071,3.844,0.148,5.768,0.233
			c5.513,0.25,10.188-4.032,10.431-9.55c0.244-5.517-4.032-10.188-9.549-10.431c-1.97-0.087-3.94-0.166-5.906-0.239
			C188.26,96.26,176.543,96.042,165,96.042c-68.926,0-125.002,56.075-125.002,125.002c0,68.925,56.075,125,125.002,125
			c20.935,0,40.733-4.118,66.199-13.77c9.431-3.574,18.785-7.456,27.832-11.211c13.153-5.458,26.754-11.103,40.444-15.717
			c31.198-10.514,61.512-15.625,92.674-15.625c44.03,0.002,79.851-35.819,79.851-79.848
			C472,200.051,469.957,191.239,465.756,182.933z"/>
	</g>
</g>
<g>
	<g>
		<path d="M174.578,135.82c-27.956,0-50.701,20.625-50.701,45.977s22.745,45.977,50.701,45.977
			c27.957,0,50.701-20.625,50.701-45.977S202.535,135.82,174.578,135.82z M174.578,207.773c-16.929,0-30.701-11.653-30.701-25.977
			c0-14.323,13.772-25.977,30.701-25.977s30.701,11.653,30.701,25.977C205.279,196.12,191.507,207.773,174.578,207.773z"/>
	</g>
</g>
<g>
</g>
<g>
</g>
<g>
</g>
<g>
</g>
<g>
</g>
<g>
</g>
<g>
</g>
<g>
</g>
<g>
</g>
<g>
</g>
<g>
</g>
<g>
</g>
<g>
</g>
<g>
</g>
<g>
</g>

</symbol>
<symbol id="pet-drinks" viewBox="0 0 55.667 55.667">
<g>
	<path d="M37.73,40.425l0.006-0.001l-0.099-1.227c-0.168-2.07-0.714-4.244-1.717-6.84c-0.283-0.733-0.441-1.561-0.505-2.397
		c-0.141-1.846,0.223-3.743,1.053-4.816c0.162-0.21,0.296-0.444,0.429-0.679c0.557-0.983,0.868-2.16,0.863-3.409l0-0.001l0-0.001
		c-0.001-0.099-0.005-0.19-0.011-0.282l-0.042-1.417l-0.027,0.007c-0.618-7.23-4.872-9.143-6.275-9.59
		c-0.121-0.211-0.288-0.622-0.401-1.382c-0.008-0.057-0.028-0.108-0.04-0.163c1.083-0.361,1.869-0.965,1.869-1.894v-4
		c0-1.722-2.693-2.333-5-2.333s-5,0.611-5,2.333v4c0,0.929,0.786,1.532,1.868,1.893c-0.013,0.054-0.032,0.106-0.04,0.162
		c-0.113,0.764-0.28,1.174-0.438,1.406c-1.369,0.426-5.621,2.338-6.238,9.569l-0.036-0.01l-0.033,1.432
		c-0.005,0.088-0.009,0.176-0.01,0.271c-0.009,1.548,0.45,3,1.292,4.09c0.753,0.974,1.134,2.629,1.091,4.308
		c-0.017,0.672-0.102,1.347-0.257,1.984c-0.078,0.318-0.173,0.627-0.287,0.921c-0.251,0.649-0.473,1.271-0.668,1.872
		c-0.585,1.803-0.923,3.414-1.049,4.968c-0.304,3.761-0.584,8.979-0.197,12.53c0.036,1.812,1.733,3.939,9.501,3.939
		c6.521,0,10.436-1.471,10.5-3.938C38.181,48.545,37.992,44.034,37.73,40.425z M20.155,38.321c0.027-0.184,0.05-0.367,0.084-0.555
		c0.053-0.297,0.123-0.604,0.194-0.911c0.042-0.184,0.078-0.364,0.126-0.552c0.088-0.342,0.197-0.699,0.307-1.057
		c0.051-0.167,0.093-0.327,0.149-0.498c0.176-0.536,0.373-1.09,0.597-1.67c0.811-2.1,0.867-4.671,0.288-6.76
		c-0.255-0.918-0.619-1.752-1.118-2.397c-0.006-0.008-0.011-0.018-0.017-0.026c-0.12-0.158-0.225-0.331-0.321-0.511
		c-0.03-0.057-0.057-0.116-0.084-0.174c-0.071-0.15-0.133-0.307-0.188-0.469c-0.019-0.056-0.04-0.111-0.057-0.168
		c-0.06-0.204-0.106-0.417-0.14-0.635c2.253,0.473,4.987,0.73,7.859,0.73c2.872,0,5.605-0.257,7.858-0.729
		c-0.034,0.219-0.081,0.431-0.141,0.635c-0.017,0.057-0.038,0.112-0.057,0.168c-0.054,0.162-0.117,0.317-0.187,0.467
		c-0.028,0.059-0.055,0.119-0.085,0.176c-0.101,0.19-0.21,0.372-0.337,0.537c-1.021,1.321-1.546,3.387-1.511,5.489
		c0.021,1.261,0.243,2.535,0.681,3.668c0.225,0.582,0.422,1.136,0.598,1.673c0.055,0.167,0.095,0.322,0.145,0.485
		c0.111,0.362,0.221,0.722,0.31,1.067c0.049,0.191,0.085,0.373,0.128,0.56c0.069,0.303,0.138,0.605,0.191,0.898
		c0.036,0.198,0.06,0.39,0.088,0.584c0.028,0.19,0.051,0.38,0.072,0.567c-2.17,0.489-4.884,0.754-7.753,0.754
		c-2.869,0-5.583-0.266-7.753-0.754C20.102,38.717,20.126,38.52,20.155,38.321z M24.834,2.551C25.15,2.354,26.145,2,27.834,2
		s2.684,0.354,3,0.551v3.564c-0.258,0.16-0.977,0.424-2.15,0.516c-0.553,0.04-1.149,0.04-1.7,0c-1.172-0.092-1.892-0.356-2.15-0.516
		V2.551z M24.819,11.704c0.504-0.157,0.922-0.491,1.177-0.938c0.3-0.522,0.517-1.224,0.708-2.147
		c0.026,0.002,0.056,0.001,0.083,0.003c0.351,0.029,0.703,0.044,1.047,0.044c0.392,0,0.769-0.017,1.192,0.014
		c0.127,0.859,0.344,1.561,0.644,2.084c0.256,0.449,0.675,0.782,1.18,0.939c1.078,0.335,4.454,1.895,4.867,8.178
		c-2.189,0.507-4.948,0.785-7.882,0.785c-2.933,0-5.692-0.278-7.882-0.786C20.364,13.598,23.741,12.039,24.819,11.704z
		 M35.841,51.557l-0.006,0.11c0,0.513-2.093,2-8.501,2c-5.934,0-7.502-1.309-7.502-2l-0.006-0.11
		c-0.327-2.938-0.163-7.161,0.081-10.638c2.269,0.483,5.029,0.748,7.927,0.748s5.658-0.265,7.927-0.748
		C36.004,44.394,36.168,48.615,35.841,51.557z"/>
	<path d="M27.646,4.87c0.553,0,1-0.447,1-1s-0.447-1-1-1h-1c-0.553,0-1,0.447-1,1s0.447,1,1,1H27.646z"/>
	<path d="M26.295,49.658c-1.886,0.074-2.565-0.367-2.768-0.563c-0.176-0.169-0.194-0.327-0.199-0.327c0,0,0,0.001-0.001,0.003
		l0.007-1.104c0-0.553-0.447-1-1-1s-1,0.447-1,1v0.948c-0.031,0.472,0.13,1.198,0.691,1.805c0.768,0.828,2.064,1.246,3.86,1.246
		c0.158,0,0.321-0.003,0.487-0.01c0.552-0.021,0.981-0.486,0.96-1.038C27.311,50.065,26.804,49.635,26.295,49.658z"/>
	<path d="M22.334,45.667c0.553,0,1-0.447,1-1v-1.01c0-0.553-0.447-1-1-1s-1,0.447-1,1v1.01
		C21.334,45.22,21.781,45.667,22.334,45.667z"/>
	<path d="M23.157,18.651c0.061,0.011,0.119,0.016,0.178,0.016c0.476,0,0.896-0.34,0.983-0.823c0.399-2.233,2.371-3.236,2.455-3.278
		c0.494-0.242,0.7-0.838,0.461-1.334c-0.24-0.495-0.834-0.703-1.336-0.465c-0.12,0.059-2.966,1.468-3.549,4.724
		C22.252,18.034,22.614,18.554,23.157,18.651z"/>
</g>
<g>
</g>
<g>
</g>
<g>
</g>
<g>
</g>
<g>
</g>
<g>
</g>
<g>
</g>
<g>
</g>
<g>
</g>
<g>
</g>
<g>
</g>
<g>
</g>
<g>
</g>
<g>
</g>
<g>
</g>

</symbol>
<symbol id="rice-dishes" viewBox="0 -16 512 512"><path d="m0 192.085938v7.5c0 55.074218 17.222656 107.542968 49.808594 151.742187 30.433594 41.277344 71.628906 71.996094 119.496094 89.1875l-12.976563 39.210937h199.351563l-12.976563-39.210937c47.863281-17.195313 89.058594-47.914063 119.492187-89.191406 32.582032-44.195313 49.804688-96.664063 49.804688-151.738281v-7.5zm330.921875 236.613281-7.15625 2.335937 11.148437 33.691406h-157.820312l11.148438-33.6875-7.15625-2.339843c-96.957032-31.683594-162.863282-120.15625-165.972657-221.613281h481.773438c-3.109375 101.457031-69.011719 189.925781-165.964844 221.613281zm0 0"/><path d="m429.996094 327.589844c-23.730469 32.1875-55.660156 57.097656-92.339844 72.03125l5.65625 13.894531c39.238281-15.976563 73.386719-42.609375 98.757812-77.023437 8.941407-12.128907 16.699219-25.109376 23.058594-38.589844l-13.566406-6.402344c-5.945312 12.601562-13.199219 24.746094-21.566406 36.089844zm0 0"/><path d="m46.976562 260.246094h418.046876v15h-418.046876zm0 0"/><path d="m121.675781 98.652344h15v15h-15zm0 0"/><path d="m149.390625 98.652344h15v15h-15zm0 0"/><path d="m177.101562 98.652344h15v15h-15zm0 0"/><path d="m348.78125 148.9375h15v15h-15zm0 0"/><path d="m376.492188 148.9375h15v15h-15zm0 0"/><path d="m404.207031 148.9375h15v15h-15zm0 0"/><path d="m41.910156 178.988281c-.550781-6.878906-.859375-12.976562.941406-17.925781 2.035157-5.582031 6.949219-10.535156 12.152344-15.78125 4.605469-4.644531 9.375-9.449219 12.757813-15.300781 3.429687-5.925781 5.234375-12.503907 6.984375-18.867188 1.945312-7.078125 3.78125-13.765625 7.535156-18.234375 3.773438-4.492187 10.050781-7.457031 16.695312-10.601562 5.957032-2.816406 12.113282-5.726563 17.339844-10.117188 5.207032-4.371094 9.125-9.921875 12.917969-15.285156 4.25-6.019531 8.265625-11.699219 13.371094-14.652344 5.023437-2.910156 11.914062-3.554687 19.207031-4.238281 6.582031-.621094 13.382812-1.257813 19.839844-3.609375 6.3125-2.296875 11.851562-6.136719 17.210937-9.847656 6.089844-4.222656 11.84375-8.207032 17.746094-9.242188 5.605469-.980468 12.242187.757813 19.273437 2.601563 6.457032 1.691406 13.132813 3.441406 20.113282 3.441406 6.984375 0 13.660156-1.75 20.117187-3.441406 7.027344-1.84375 13.667969-3.585938 19.273438-2.601563 5.902343 1.035156 11.65625 5.023438 17.75 9.242188 5.355469 3.710937 10.894531 7.550781 17.207031 9.847656 6.457031 2.351562 13.257812 2.992188 19.839844 3.609375 7.292968.683594 14.183594 1.332031 19.210937 4.238281 5.101563 2.953125 9.117188 8.636719 13.367188 14.652344 3.792969 5.367188 7.710937 10.914062 12.917969 15.285156 5.226562 4.394532 11.386718 7.304688 17.339843 10.121094 6.648438 3.140625 12.925781 6.109375 16.695313 10.597656 3.757812 4.472656 5.59375 11.15625 7.539062 18.234375 1.746094 6.363281 3.554688 12.941407 6.984375 18.867188 3.382813 5.851562 8.148438 10.65625 12.757813 15.304687 5.203125 5.242188 10.117187 10.199219 12.148437 15.777344 1.804688 4.953125 1.492188 11.046875.941407 17.925781l14.953124 1.199219c.667969-8.339844 1.035157-16.476562-1.796874-24.253906-3.160157-8.675782-9.480469-15.050782-15.59375-21.210938-4.121094-4.15625-8.011719-8.078125-10.425782-12.253906-2.460937-4.25-3.941406-9.632812-5.503906-15.328125-2.289062-8.320313-4.652344-16.925781-10.515625-23.90625-5.882813-7.003906-13.960937-10.820313-21.769531-14.515625-5.328125-2.519531-10.363282-4.898438-14.105469-8.039062-3.71875-3.125-6.921875-7.660157-10.3125-12.457032-4.996094-7.074218-10.160156-14.386718-18.109375-18.984375-7.867188-4.550781-16.738281-5.382812-25.320312-6.1875-5.894532-.554687-11.464844-1.074219-16.109376-2.765625-4.492187-1.636718-9.011718-4.769531-13.796874-8.085937-7.152344-4.957031-14.550782-10.085938-23.699219-11.6875-8.832031-1.546875-17.390625.699219-25.667969 2.867187-5.789062 1.519532-11.261719 2.953125-16.3125 2.953125-5.046875 0-10.519531-1.433593-16.3125-2.953125-8.277344-2.167968-16.832031-4.410156-25.664062-2.867187-9.148438 1.601562-16.546876 6.730469-23.703126 11.6875-4.785156 3.316406-9.300781 6.449219-13.796874 8.085937-4.644532 1.691406-10.214844 2.210938-16.109376 2.765625-8.578124.804688-17.453124 1.636719-25.320312 6.1875-7.945312 4.597657-13.113281 11.910157-18.109375 18.984375-3.390625 4.796875-6.589844 9.332032-10.3125 12.457032-3.742187 3.140624-8.773437 5.519531-14.105469 8.039062-7.808594 3.695312-15.886718 7.511719-21.765625 14.515625-5.867187 6.980469-8.230469 15.585937-10.515625 23.90625-1.566406 5.695313-3.042968 11.078125-5.503906 15.328125-2.417969 4.175781-6.308594 8.097656-10.425781 12.253906-6.113281 6.164063-12.4375 12.535156-15.59375 21.210938-2.835938 7.78125-2.46875 15.914062-1.800781 24.253906zm0 0"/><path d="m295.917969 242.621094h-30v-15h30zm-40 0h-15v-15h15zm-25 0h-15v-15h15zm0 0"/>
</symbol>
<symbol id="soups" viewBox="0 -33 512.001 512"><path d="m0 379.265625v31.230469l36.394531 36.394531h439.207031l36.394532-36.386719.003906-31.238281zm496.996094 25.023437-27.605469 27.601563h-426.785156l-27.605469-27.605469v-10.019531h481.996094zm0 0"/><path d="m135.566406 357.539062v12.222657h15v-8.855469h210.859375v8.855469h15v-12.214844c59.75-40.246094 95.300781-106.867187 95.300781-179.011719v-7.5h-431.453124v7.5c0 72.140625 35.546874 138.761719 95.292968 179.003906zm321.023438-171.503906c-2.382813 64.703125-35.507813 123.890625-89.738282 159.871094h-221.703124c-54.230469-35.980469-87.355469-95.167969-89.738282-159.871094zm0 0"/><path d="m220.464844 125.574219 10.605468-10.609375-9.015624-9.011719c-4.386719-4.386719-4.386719-11.488281 0-15.871094l43.984374-43.980469c10.222657-10.226562 10.222657-26.863281 0-37.085937l-9.015624-9.015625-10.605469 10.609375 9.011719 9.011719c2.121093 2.121094 3.289062 4.9375 3.289062 7.9375 0 2.996094-1.167969 5.816406-3.289062 7.933594l-43.980469 43.980468c-10.246094 10.25-10.25 26.835938 0 37.085938zm0 0"/><path d="m289.941406 70.003906-43.980468 43.980469c-10.222657 10.226563-10.222657 26.859375 0 37.085937l9.011718 9.015626 10.609375-10.605469-9.015625-9.015625c-4.375-4.375-4.375-11.496094 0-15.871094l43.980469-43.980469c10.25-10.25 10.253906-26.835937 0-37.085937l-9.011719-9.015625-10.605468 10.605469 9.011718 9.015624c4.386719 4.386719 4.386719 11.484376 0 15.871094zm0 0"/><path d="m116.207031 153.027344-60.933593-56.328125v-10.867188l10.59375-10.597656h10.867187l81.714844 88.394531 11.015625-10.183594-86.167969-93.210937h-23.640625l-19.382812 19.382813v23.640624l65.75 60.785157zm0 0"/><path d="m352.246094 332.195312-7.976563-12.707031c27.832031-17.46875 49.703125-42.480469 63.246094-72.328125l13.660156 6.195313c-14.761719 32.539062-38.597656 59.800781-68.929687 78.839843zm72.964844-88.460937-13.996094-5.394531c1.714844-4.449219 3.253906-9.023438 4.574218-13.601563l14.410157 4.160157c-1.4375 4.992187-3.117188 9.984374-4.988281 14.835937zm7.589843-24.9375-14.628906-3.320313c1.054687-4.640624 1.917969-9.390624 2.566406-14.121093l14.859375 2.039062c-.707031 5.160157-1.648437 10.339844-2.796875 15.402344zm0 0"/><path d="m464.226562 419.265625h-132.570312v-15h132.570312zm-142.570312 0h-15v-15h15zm-25 0h-15v-15h15zm0 0"/>
</symbol>
<symbol id="wallet" viewBox="0 0 331.493 331.493">
<g>
	<g>
		<path d="M298.761,57.093l-101.2-54.8c-9.6-5.2-22.8-1.2-28,8.4l-59.2,110h-72c-9.2,0-16.4,7.2-16.4,16.4v28.8v149.2
			c0,9.2,7.2,16.4,16.4,16.4h230c9.2,0,16.4-7.2,16.4-16.4v-41.6h6.8c3.6,0,6.4-2.8,6.4-6.4v-47.6c0-3.6-2.8-6.4-6.4-6.4h-6.8v-46.8
			c0-7.6-5.6-14.4-12.8-16l35.2-65.2C312.361,75.093,308.761,62.693,298.761,57.093z M226.761,32.693l-63.2,117.2h-18l67.6-124.4
			L226.761,32.693z M181.161,16.693c2-3.6,6.8-5.2,10.4-3.2l10,5.6l-70.4,130.8h-22L181.161,16.693z M34.361,136.693
			c0-1.2,1.6-3.2,3.6-3.2h65.2l-8.8,16h-56.4c-1.2,0-2.4,0-3.6,0.4V136.693z M271.561,315.093c0,2-1.6,3.6-3.6,3.6h-230
			c-2,0-3.6-1.6-3.6-3.6v-148.8c0-2,1.6-3.6,3.6-3.6h60.4h25.6h46.8h90h6.8c2,0,3.6,1.6,3.6,3.6v46.8h-24.4v0
			c-10.8,0-19.2,8.8-19.2,19.2v22c0,10.8,8.8,19.2,19.2,19.2h24.8V315.093z M284.361,225.893h0.4v34.8h-0.4h-37.6
			c-3.6,0-6.4-2.8-6.4-6.4v-22c0-3.6,2.8-6.4,6.4-6.4H284.361z M295.561,78.693l-38.4,71.2h-79.2l60-110.8l54.4,29.6
			C296.361,70.293,297.561,75.093,295.561,78.693z"/>
	</g>
</g>
<g>
	<g>
		<path d="M271.161,72.693l-3.2-1.6c-8-4.4-18.8-1.2-23.2,6.8l-4,7.6c-2,4-2.8,8.8-1.2,13.2c1.2,4.4,4.4,8,8.4,10l3.2,1.6
			c2.4,1.2,5.2,2,8,2c6.4,0,12-3.6,15.2-8.8l4-7.6C282.361,87.493,279.161,77.093,271.161,72.693z M266.761,89.893l-4,7.6
			c-1.2,2-4,2.8-6,1.6l-3.2-2c-0.8-0.4-1.6-1.6-2-2.4c-0.4-1.2-0.4-2.4,0.4-3.2l4-7.6c0.8-1.2,2.4-2.4,4-2.4c0.8,0,1.2,0,2,0.4
			l3.2,1.6C266.761,85.093,267.561,87.493,266.761,89.893z"/>
	</g>
</g>
<g>
</g>
<g>
</g>
<g>
</g>
<g>
</g>
<g>
</g>
<g>
</g>
<g>
</g>
<g>
</g>
<g>
</g>
<g>
</g>
<g>
</g>
<g>
</g>
<g>
</g>
<g>
</g>
<g>
</g>

</symbol></svg>